<svg width="16" height="16" viewBox="0 0 16 16" fill="none" xmlns="http://www.w3.org/2000/svg">
<path d="M9.8135 5.86065L6.9535 8.72732L5.8535 7.62732C5.79373 7.55753 5.72019 7.50085 5.63748 7.46083C5.55477 7.42082 5.46468 7.39833 5.37287 7.39479C5.28105 7.39124 5.1895 7.40671 5.10395 7.44023C5.0184 7.47374 4.9407 7.52458 4.87573 7.58955C4.81076 7.65452 4.75992 7.73222 4.72641 7.81777C4.69289 7.90332 4.67742 7.99487 4.68097 8.08669C4.68451 8.1785 4.707 8.26859 4.74701 8.3513C4.78703 8.43401 4.84371 8.50755 4.9135 8.56732L6.48017 10.1407C6.54246 10.2024 6.61634 10.2513 6.69756 10.2845C6.77879 10.3177 6.86576 10.3345 6.9535 10.334C7.12839 10.3332 7.29599 10.2638 7.42017 10.1407L10.7535 6.80732C10.816 6.74534 10.8656 6.67161 10.8994 6.59037C10.9333 6.50913 10.9507 6.42199 10.9507 6.33398C10.9507 6.24598 10.9333 6.15884 10.8994 6.0776C10.8656 5.99636 10.816 5.92263 10.7535 5.86065C10.6286 5.73648 10.4596 5.66679 10.2835 5.66679C10.1074 5.66679 9.93841 5.73648 9.8135 5.86065ZM8.00017 1.33398C6.68162 1.33398 5.39269 1.72498 4.29636 2.45752C3.20004 3.19006 2.34555 4.23125 1.84097 5.44943C1.33638 6.6676 1.20436 8.00805 1.4616 9.30125C1.71883 10.5945 2.35377 11.7823 3.28612 12.7147C4.21847 13.647 5.40636 14.282 6.69956 14.5392C7.99277 14.7965 9.33321 14.6644 10.5514 14.1598C11.7696 13.6553 12.8108 12.8008 13.5433 11.7045C14.2758 10.6081 14.6668 9.31919 14.6668 8.00065C14.6668 7.12517 14.4944 6.25827 14.1594 5.44943C13.8243 4.64059 13.3333 3.90566 12.7142 3.28661C12.0952 2.66755 11.3602 2.17649 10.5514 1.84145C9.74255 1.50642 8.87564 1.33398 8.00017 1.33398ZM8.00017 13.334C6.94533 13.334 5.91419 13.0212 5.03712 12.4352C4.16006 11.8491 3.47648 11.0162 3.07281 10.0416C2.66914 9.06709 2.56352 7.99474 2.76931 6.96017C2.9751 5.9256 3.48305 4.9753 4.22893 4.22941C4.97481 3.48354 5.92512 2.97558 6.95968 2.7698C7.99425 2.56401 9.0666 2.66963 10.0411 3.07329C11.0157 3.47696 11.8486 4.16055 12.4347 5.03761C13.0207 5.91467 13.3335 6.94582 13.3335 8.00065C13.3335 9.41514 12.7716 10.7717 11.7714 11.7719C10.7712 12.7721 9.41465 13.334 8.00017 13.334Z" fill="#000000"/>
</svg>
