<svg width="20" height="20" viewBox="0 0 20 20" fill="none" xmlns="http://www.w3.org/2000/svg">
<path d="M12.3574 9.40825L8.8241 5.87492C8.74663 5.79681 8.65446 5.73481 8.55291 5.69251C8.45136 5.6502 8.34244 5.62842 8.23243 5.62842C8.12242 5.62842 8.0135 5.6502 7.91195 5.69251C7.8104 5.73481 7.71823 5.79681 7.64076 5.87492C7.48556 6.03105 7.39844 6.24226 7.39844 6.46242C7.39844 6.68257 7.48556 6.89378 7.64076 7.04992L10.5908 9.99992L7.64076 12.9499C7.48556 13.1061 7.39844 13.3173 7.39844 13.5374C7.39844 13.7576 7.48556 13.9688 7.64076 14.1249C7.71863 14.2022 7.81098 14.2633 7.91251 14.3047C8.01404 14.3462 8.12276 14.3672 8.23243 14.3666C8.3421 14.3672 8.45082 14.3462 8.55235 14.3047C8.65388 14.2633 8.74623 14.2022 8.8241 14.1249L12.3574 10.5916C12.4355 10.5141 12.4975 10.4219 12.5398 10.3204C12.5821 10.2188 12.6039 10.1099 12.6039 9.99992C12.6039 9.88991 12.5821 9.78098 12.5398 9.67944C12.4975 9.57789 12.4355 9.48572 12.3574 9.40825Z" fill="#000000"/>
</svg>
