<svg width="16" height="16" viewBox="0 0 16 16" fill="none" xmlns="http://www.w3.org/2000/svg">
<path d="M12.6667 2.66732H11.3334V2.00065C11.3334 1.82384 11.2631 1.65427 11.1381 1.52925C11.0131 1.40422 10.8435 1.33398 10.6667 1.33398C10.4899 1.33398 10.3203 1.40422 10.1953 1.52925C10.0703 1.65427 10 1.82384 10 2.00065V2.66732H6.00004V2.00065C6.00004 1.82384 5.9298 1.65427 5.80478 1.52925C5.67975 1.40422 5.51019 1.33398 5.33337 1.33398C5.15656 1.33398 4.98699 1.40422 4.86197 1.52925C4.73695 1.65427 4.66671 1.82384 4.66671 2.00065V2.66732H3.33337C2.80294 2.66732 2.29423 2.87803 1.91916 3.2531C1.54409 3.62818 1.33337 4.13688 1.33337 4.66732V12.6673C1.33337 13.1978 1.54409 13.7065 1.91916 14.0815C2.29423 14.4566 2.80294 14.6673 3.33337 14.6673H12.6667C13.1971 14.6673 13.7058 14.4566 14.0809 14.0815C14.456 13.7065 14.6667 13.1978 14.6667 12.6673V4.66732C14.6667 4.13688 14.456 3.62818 14.0809 3.2531C13.7058 2.87803 13.1971 2.66732 12.6667 2.66732ZM13.3334 12.6673C13.3334 12.8441 13.2631 13.0137 13.1381 13.1387C13.0131 13.2637 12.8435 13.334 12.6667 13.334H3.33337C3.15656 13.334 2.98699 13.2637 2.86197 13.1387C2.73695 13.0137 2.66671 12.8441 2.66671 12.6673V8.00065H13.3334V12.6673ZM13.3334 6.66732H2.66671V4.66732C2.66671 4.49051 2.73695 4.32094 2.86197 4.19591C2.98699 4.07089 3.15656 4.00065 3.33337 4.00065H4.66671V4.66732C4.66671 4.84413 4.73695 5.0137 4.86197 5.13872C4.98699 5.26375 5.15656 5.33398 5.33337 5.33398C5.51019 5.33398 5.67975 5.26375 5.80478 5.13872C5.9298 5.0137 6.00004 4.84413 6.00004 4.66732V4.00065H10V4.66732C10 4.84413 10.0703 5.0137 10.1953 5.13872C10.3203 5.26375 10.4899 5.33398 10.6667 5.33398C10.8435 5.33398 11.0131 5.26375 11.1381 5.13872C11.2631 5.0137 11.3334 4.84413 11.3334 4.66732V4.00065H12.6667C12.8435 4.00065 13.0131 4.07089 13.1381 4.19591C13.2631 4.32094 13.3334 4.49051 13.3334 4.66732V6.66732Z" fill="#000000"/>
</svg>
