<svg width="16" height="16" viewBox="0 0 16 16" fill="none" xmlns="http://www.w3.org/2000/svg">
<rect x="0.5" y="0.5" width="15" height="15" rx="7.5" fill="transparent"/>
<path d="M8.58731 7.9991L11.2123 5.37827C11.2908 5.29981 11.3349 5.19339 11.3349 5.08243C11.3349 4.97148 11.2908 4.86506 11.2123 4.7866C11.1339 4.70814 11.0274 4.66406 10.9165 4.66406C10.8055 4.66406 10.6991 4.70814 10.6206 4.7866L7.99981 7.4116L5.37898 4.7866C5.30052 4.70814 5.1941 4.66406 5.08315 4.66406C4.97219 4.66406 4.86577 4.70814 4.78731 4.7866C4.70885 4.86506 4.66477 4.97148 4.66477 5.08243C4.66477 5.19339 4.70885 5.29981 4.78731 5.37827L7.41231 7.9991L4.78731 10.6199C4.74826 10.6587 4.71726 10.7048 4.69611 10.7555C4.67495 10.8063 4.66406 10.8608 4.66406 10.9158C4.66406 10.9708 4.67495 11.0252 4.69611 11.076C4.71726 11.1268 4.74826 11.1729 4.78731 11.2116C4.82605 11.2507 4.87213 11.2817 4.9229 11.3028C4.97368 11.324 5.02814 11.3348 5.08315 11.3348C5.13815 11.3348 5.19261 11.324 5.24339 11.3028C5.29416 11.2817 5.34024 11.2507 5.37898 11.2116L7.99981 8.5866L10.6206 11.2116C10.6594 11.2507 10.7055 11.2817 10.7562 11.3028C10.807 11.324 10.8615 11.3348 10.9165 11.3348C10.9715 11.3348 11.0259 11.324 11.0767 11.3028C11.1275 11.2817 11.1736 11.2507 11.2123 11.2116C11.2514 11.1729 11.2824 11.1268 11.3035 11.076C11.3247 11.0252 11.3356 10.9708 11.3356 10.9158C11.3356 10.8608 11.3247 10.8063 11.3035 10.7555C11.2824 10.7048 11.2514 10.6587 11.2123 10.6199L8.58731 7.9991Z" fill="#002DB3"/>
<rect x="0.5" y="0.5" width="15" height="15" rx="7.5" stroke="#000000"/>
</svg>
