<svg width="16" height="16" viewBox="0 0 16 16" fill="none" xmlns="http://www.w3.org/2000/svg">
<path d="M14.0002 9.33398C13.8234 9.33398 13.6538 9.40422 13.5288 9.52925C13.4037 9.65427 13.3335 9.82384 13.3335 10.0007V12.6673C13.3335 12.8441 13.2633 13.0137 13.1382 13.1387C13.0132 13.2637 12.8436 13.334 12.6668 13.334H3.3335C3.15669 13.334 2.98712 13.2637 2.86209 13.1387C2.73707 13.0137 2.66683 12.8441 2.66683 12.6673V10.0007C2.66683 9.82384 2.59659 9.65427 2.47157 9.52925C2.34654 9.40422 2.17697 9.33398 2.00016 9.33398C1.82335 9.33398 1.65378 9.40422 1.52876 9.52925C1.40373 9.65427 1.3335 9.82384 1.3335 10.0007V12.6673C1.3335 13.1978 1.54421 13.7065 1.91928 14.0815C2.29436 14.4566 2.80306 14.6673 3.3335 14.6673H12.6668C13.1973 14.6673 13.706 14.4566 14.081 14.0815C14.4561 13.7065 14.6668 13.1978 14.6668 12.6673V10.0007C14.6668 9.82384 14.5966 9.65427 14.4716 9.52925C14.3465 9.40422 14.177 9.33398 14.0002 9.33398ZM7.52683 10.474C7.59023 10.5347 7.665 10.5823 7.74683 10.614C7.82663 10.6493 7.91292 10.6675 8.00016 10.6675C8.08741 10.6675 8.1737 10.6493 8.2535 10.614C8.33533 10.5823 8.41009 10.5347 8.4735 10.474L11.1402 7.80732C11.2657 7.68178 11.3362 7.51152 11.3362 7.33398C11.3362 7.15645 11.2657 6.98619 11.1402 6.86065C11.0146 6.73512 10.8444 6.66459 10.6668 6.66459C10.4893 6.66459 10.319 6.73512 10.1935 6.86065L8.66683 8.39398V2.00065C8.66683 1.82384 8.59659 1.65427 8.47157 1.52925C8.34654 1.40422 8.17697 1.33398 8.00016 1.33398C7.82335 1.33398 7.65378 1.40422 7.52876 1.52925C7.40373 1.65427 7.3335 1.82384 7.3335 2.00065V8.39398L5.80683 6.86065C5.74467 6.79849 5.67088 6.74918 5.58966 6.71554C5.50845 6.6819 5.4214 6.66459 5.3335 6.66459C5.24559 6.66459 5.15854 6.6819 5.07733 6.71554C4.99612 6.74918 4.92232 6.79849 4.86016 6.86065C4.798 6.92281 4.7487 6.9966 4.71506 7.07782C4.68142 7.15903 4.6641 7.24608 4.6641 7.33398C4.6641 7.42189 4.68142 7.50894 4.71506 7.59015C4.7487 7.67137 4.798 7.74516 4.86016 7.80732L7.52683 10.474Z" fill="#000000"/>
</svg>
