<svg width="20" height="20" viewBox="0 0 20 20" fill="none" xmlns="http://www.w3.org/2000/svg">
<path d="M18.3332 6.0327C18.3338 5.92302 18.3128 5.81431 18.2713 5.71277C18.2299 5.61124 18.1688 5.5189 18.0915 5.44103L14.5582 1.9077C14.4803 1.83046 14.388 1.76936 14.2864 1.72789C14.1849 1.68642 14.0762 1.6654 13.9665 1.66603C13.8568 1.6654 13.7481 1.68642 13.6466 1.72789C13.5451 1.76936 13.4527 1.83046 13.3749 1.9077L11.0165 4.26603L1.90818 13.3744C1.83095 13.4522 1.76985 13.5446 1.72838 13.6461C1.6869 13.7476 1.66588 13.8564 1.66652 13.966V17.4994C1.66652 17.7204 1.75432 17.9323 1.9106 18.0886C2.06688 18.2449 2.27884 18.3327 2.49985 18.3327H6.03318C6.14979 18.339 6.26643 18.3208 6.37553 18.2792C6.48464 18.2375 6.58378 18.1734 6.66652 18.091L15.7249 8.9827L18.0915 6.66603C18.1676 6.58526 18.2296 6.49231 18.2749 6.39103C18.2829 6.3246 18.2829 6.25745 18.2749 6.19103C18.2787 6.15224 18.2787 6.11315 18.2749 6.07436L18.3332 6.0327ZM5.69152 16.666H3.33318V14.3077L11.6082 6.0327L13.9665 8.39103L5.69152 16.666ZM15.1415 7.21603L12.7832 4.8577L13.9665 3.6827L16.3165 6.0327L15.1415 7.21603Z" fill="#000000"/>
</svg>
