<svg width="16" height="16" viewBox="0 0 16 16" fill="none" xmlns="http://www.w3.org/2000/svg">
<path d="M6 6.66536H6.66667C6.84348 6.66536 7.01305 6.59513 7.13807 6.4701C7.2631 6.34508 7.33333 6.17551 7.33333 5.9987C7.33333 5.82189 7.2631 5.65232 7.13807 5.52729C7.01305 5.40227 6.84348 5.33203 6.66667 5.33203H6C5.82319 5.33203 5.65362 5.40227 5.5286 5.52729C5.40357 5.65232 5.33333 5.82189 5.33333 5.9987C5.33333 6.17551 5.40357 6.34508 5.5286 6.4701C5.65362 6.59513 5.82319 6.66536 6 6.66536ZM6 7.9987C5.82319 7.9987 5.65362 8.06894 5.5286 8.19396C5.40357 8.31898 5.33333 8.48855 5.33333 8.66536C5.33333 8.84218 5.40357 9.01174 5.5286 9.13677C5.65362 9.26179 5.82319 9.33203 6 9.33203H10C10.1768 9.33203 10.3464 9.26179 10.4714 9.13677C10.5964 9.01174 10.6667 8.84218 10.6667 8.66536C10.6667 8.48855 10.5964 8.31898 10.4714 8.19396C10.3464 8.06894 10.1768 7.9987 10 7.9987H6ZM13.3333 5.9587C13.3264 5.89745 13.313 5.83712 13.2933 5.7787V5.7187C13.2613 5.65015 13.2185 5.58714 13.1667 5.53203L9.16667 1.53203C9.11156 1.48018 9.04855 1.43742 8.98 1.40536C8.9601 1.40254 8.9399 1.40254 8.92 1.40536C8.85228 1.36653 8.77748 1.34159 8.7 1.33203H4.66667C4.13623 1.33203 3.62753 1.54274 3.25245 1.91782C2.87738 2.29289 2.66667 2.8016 2.66667 3.33203V12.6654C2.66667 13.1958 2.87738 13.7045 3.25245 14.0796C3.62753 14.4547 4.13623 14.6654 4.66667 14.6654H11.3333C11.8638 14.6654 12.3725 14.4547 12.7475 14.0796C13.1226 13.7045 13.3333 13.1958 13.3333 12.6654V5.9987C13.3333 5.9987 13.3333 5.9987 13.3333 5.9587ZM9.33333 3.60536L11.06 5.33203H10C9.82319 5.33203 9.65362 5.26179 9.5286 5.13677C9.40357 5.01174 9.33333 4.84218 9.33333 4.66536V3.60536ZM12 12.6654C12 12.8422 11.9298 13.0117 11.8047 13.1368C11.6797 13.2618 11.5101 13.332 11.3333 13.332H4.66667C4.48986 13.332 4.32029 13.2618 4.19526 13.1368C4.07024 13.0117 4 12.8422 4 12.6654V3.33203C4 3.15522 4.07024 2.98565 4.19526 2.86063C4.32029 2.7356 4.48986 2.66536 4.66667 2.66536H8V4.66536C8 5.1958 8.21071 5.70451 8.58579 6.07958C8.96086 6.45465 9.46957 6.66536 10 6.66536H12V12.6654ZM10 10.6654H6C5.82319 10.6654 5.65362 10.7356 5.5286 10.8606C5.40357 10.9857 5.33333 11.1552 5.33333 11.332C5.33333 11.5088 5.40357 11.6784 5.5286 11.8034C5.65362 11.9285 5.82319 11.9987 6 11.9987H10C10.1768 11.9987 10.3464 11.9285 10.4714 11.8034C10.5964 11.6784 10.6667 11.5088 10.6667 11.332C10.6667 11.1552 10.5964 10.9857 10.4714 10.8606C10.3464 10.7356 10.1768 10.6654 10 10.6654Z" fill="#000000"/>
</svg>
