<svg width="16" height="16" viewBox="0 0 16 16" fill="none" xmlns="http://www.w3.org/2000/svg">
<path d="M13.3333 5.45398V2.00065C13.3333 1.82384 13.2631 1.65427 13.1381 1.52925C13.013 1.40422 12.8435 1.33398 12.6667 1.33398C12.4898 1.33398 12.3203 1.40422 12.1952 1.52925C12.0702 1.65427 12 1.82384 12 2.00065V5.45398C11.6139 5.59412 11.2803 5.84974 11.0445 6.18609C10.8088 6.52245 10.6823 6.92324 10.6823 7.33398C10.6823 7.74473 10.8088 8.14552 11.0445 8.48187C11.2803 8.81823 11.6139 9.07385 12 9.21398V14.0007C12 14.1775 12.0702 14.347 12.1952 14.4721C12.3203 14.5971 12.4898 14.6673 12.6667 14.6673C12.8435 14.6673 13.013 14.5971 13.1381 14.4721C13.2631 14.347 13.3333 14.1775 13.3333 14.0007V9.21398C13.7194 9.07385 14.053 8.81823 14.2888 8.48187C14.5245 8.14552 14.651 7.74473 14.651 7.33398C14.651 6.92324 14.5245 6.52245 14.2888 6.18609C14.053 5.84974 13.7194 5.59412 13.3333 5.45398ZM12.6667 8.00065C12.5348 8.00065 12.4059 7.96155 12.2963 7.8883C12.1866 7.81504 12.1012 7.71092 12.0507 7.58911C12.0003 7.46729 11.9871 7.33324 12.0128 7.20392C12.0385 7.0746 12.102 6.95582 12.1952 6.86258C12.2885 6.76935 12.4073 6.70585 12.5366 6.68013C12.6659 6.6544 12.8 6.66761 12.9218 6.71806C13.0436 6.76852 13.1477 6.85397 13.221 6.9636C13.2942 7.07324 13.3333 7.20213 13.3333 7.33398C13.3333 7.5108 13.2631 7.68036 13.1381 7.80539C13.013 7.93041 12.8435 8.00065 12.6667 8.00065ZM8.66665 9.45399V2.00065C8.66665 1.82384 8.59641 1.65427 8.47139 1.52925C8.34636 1.40422 8.17679 1.33398 7.99998 1.33398C7.82317 1.33398 7.6536 1.40422 7.52858 1.52925C7.40355 1.65427 7.33332 1.82384 7.33332 2.00065V9.45399C6.94722 9.59412 6.61362 9.84974 6.37788 10.1861C6.14213 10.5225 6.01567 10.9232 6.01567 11.334C6.01567 11.7447 6.14213 12.1455 6.37788 12.4819C6.61362 12.8182 6.94722 13.0738 7.33332 13.214V14.0007C7.33332 14.1775 7.40355 14.347 7.52858 14.4721C7.6536 14.5971 7.82317 14.6673 7.99998 14.6673C8.17679 14.6673 8.34636 14.5971 8.47139 14.4721C8.59641 14.347 8.66665 14.1775 8.66665 14.0007V13.214C9.05275 13.0738 9.38634 12.8182 9.62209 12.4819C9.85783 12.1455 9.9843 11.7447 9.9843 11.334C9.9843 10.9232 9.85783 10.5225 9.62209 10.1861C9.38634 9.84974 9.05275 9.59412 8.66665 9.45399ZM7.99998 12.0007C7.86813 12.0007 7.73924 11.9616 7.6296 11.8883C7.51997 11.815 7.43452 11.7109 7.38406 11.5891C7.33361 11.4673 7.3204 11.3332 7.34613 11.2039C7.37185 11.0746 7.43534 10.9558 7.52858 10.8626C7.62181 10.7693 7.7406 10.7059 7.86992 10.6801C7.99924 10.6544 8.13329 10.6676 8.25511 10.7181C8.37692 10.7685 8.48104 10.854 8.5543 10.9636C8.62755 11.0732 8.66665 11.2021 8.66665 11.334C8.66665 11.5108 8.59641 11.6804 8.47139 11.8054C8.34636 11.9304 8.17679 12.0007 7.99998 12.0007ZM3.99998 4.12065V2.00065C3.99998 1.82384 3.92975 1.65427 3.80472 1.52925C3.6797 1.40422 3.51013 1.33398 3.33332 1.33398C3.15651 1.33398 2.98694 1.40422 2.86191 1.52925C2.73689 1.65427 2.66665 1.82384 2.66665 2.00065V4.12065C2.28055 4.26079 1.94696 4.5164 1.71121 4.85276C1.47547 5.18912 1.349 5.5899 1.349 6.00065C1.349 6.4114 1.47547 6.81218 1.71121 7.14854C1.94696 7.4849 2.28055 7.74051 2.66665 7.88065V14.0007C2.66665 14.1775 2.73689 14.347 2.86191 14.4721C2.98694 14.5971 3.15651 14.6673 3.33332 14.6673C3.51013 14.6673 3.6797 14.5971 3.80472 14.4721C3.92975 14.347 3.99998 14.1775 3.99998 14.0007V7.88065C4.38609 7.74051 4.71968 7.4849 4.95542 7.14854C5.19117 6.81218 5.31763 6.4114 5.31763 6.00065C5.31763 5.5899 5.19117 5.18912 4.95542 4.85276C4.71968 4.5164 4.38609 4.26079 3.99998 4.12065ZM3.33332 6.66732C3.20146 6.66732 3.07257 6.62822 2.96294 6.55496C2.8533 6.48171 2.76786 6.37759 2.7174 6.25577C2.66694 6.13396 2.65374 5.99991 2.67946 5.87059C2.70518 5.74127 2.76868 5.62248 2.86191 5.52925C2.95515 5.43601 3.07394 5.37252 3.20326 5.34679C3.33258 5.32107 3.46662 5.33427 3.58844 5.38473C3.71026 5.43519 3.81438 5.52064 3.88763 5.63027C3.96088 5.7399 3.99998 5.8688 3.99998 6.00065C3.99998 6.17746 3.92975 6.34703 3.80472 6.47206C3.6797 6.59708 3.51013 6.66732 3.33332 6.66732Z" fill="#000000"/>
</svg>
