<svg width="24" height="24" viewBox="0 0 24 24" fill="none" xmlns="http://www.w3.org/2000/svg">
<path fill-rule="evenodd" clip-rule="evenodd" d="M5 8C5 8.55228 5.44772 9 6 9L18 9C18.5523 9 19 8.55229 19 8L19 6C19 5.44772 18.5523 5 18 5L6 5C5.44772 5 5 5.44772 5 6L5 8ZM6 11C4.34315 11 3 9.65685 3 8L3 6C3 4.34315 4.34315 3 6 3L18 3C19.6569 3 21 4.34315 21 6L21 8C21 9.65685 19.6569 11 18 11L6 11Z" fill="#000000"/>
<path fill-rule="evenodd" clip-rule="evenodd" d="M5 18C5 18.5523 5.44772 19 6 19L18 19C18.5523 19 19 18.5523 19 18L19 16C19 15.4477 18.5523 15 18 15L6 15C5.44772 15 5 15.4477 5 16L5 18ZM6 21C4.34315 21 3 19.6569 3 18L3 16C3 14.3431 4.34315 13 6 13L18 13C19.6569 13 21 14.3431 21 16L21 18C21 19.6569 19.6569 21 18 21L6 21Z" fill="#000000"/>
</svg>
