<svg width="20" height="20" viewBox="0 0 20 20" fill="none" xmlns="http://www.w3.org/2000/svg">
<path d="M10.8309 10.8312L18.2496 10.8371C18.4715 10.8371 18.6844 10.749 18.8413 10.5921C18.9982 10.4351 19.0864 10.2223 19.0864 10.0004C19.0864 9.77847 18.9982 9.56564 18.8413 9.40872C18.6844 9.2518 18.4715 9.16364 18.2496 9.16364L10.8309 9.16954L10.8368 1.75081C10.8368 1.52889 10.7486 1.31606 10.5917 1.15914C10.4348 1.00222 10.2219 0.914063 10 0.914063C9.77811 0.914063 9.56528 1.00222 9.40836 1.15914C9.25144 1.31606 9.16329 1.52889 9.16329 1.75081L9.16918 9.16953L1.75045 9.16364C1.64044 9.16319 1.53143 9.18453 1.42971 9.22642C1.32799 9.26831 1.23557 9.32992 1.15778 9.40771C1.07999 9.4855 1.01837 9.57792 0.976483 9.67964C0.934593 9.78137 0.913258 9.89037 0.913709 10.0004C0.913257 10.1104 0.934592 10.2194 0.976482 10.3211C1.01837 10.4228 1.07999 10.5153 1.15778 10.5931C1.23557 10.6708 1.32799 10.7325 1.42971 10.7744C1.53143 10.8162 1.64044 10.8376 1.75045 10.8371L9.16918 10.8312L9.16329 18.25C9.16284 18.36 9.18417 18.469 9.22606 18.5707C9.26795 18.6724 9.32957 18.7648 9.40736 18.8426C9.48515 18.9204 9.57757 18.982 9.67929 19.0239C9.78101 19.0658 9.89002 19.0872 10 19.0867C10.11 19.0872 10.2191 19.0658 10.3208 19.0239C10.4225 18.982 10.5149 18.9204 10.5927 18.8426C10.6705 18.7648 10.7321 18.6724 10.774 18.5707C10.8159 18.469 10.8372 18.36 10.8368 18.25L10.8309 10.8312Z" fill="#000000"/>
</svg>
