<svg width="14" height="14" viewBox="0 0 14 14" fill="none" xmlns="http://www.w3.org/2000/svg">
<path d="M6.19334 9.19398C6.16467 9.22566 6.13795 9.25906 6.11334 9.29398C6.08811 9.33115 6.06793 9.3715 6.05334 9.41398C6.03411 9.45177 6.02063 9.49222 6.01334 9.53399C6.01006 9.57837 6.01006 9.62293 6.01334 9.66732C6.01108 9.75477 6.02935 9.84153 6.06667 9.92065C6.09661 10.0034 6.14438 10.0785 6.20659 10.1407C6.26881 10.2029 6.34394 10.2507 6.42667 10.2807C6.50647 10.3159 6.59276 10.3341 6.68 10.3341C6.76725 10.3341 6.85354 10.3159 6.93334 10.2807C7.01607 10.2507 7.0912 10.2029 7.15341 10.1407C7.21563 10.0785 7.26339 10.0034 7.29334 9.92065C7.32294 9.83959 7.33652 9.75356 7.33334 9.66732C7.33384 9.57958 7.31703 9.49261 7.28385 9.41138C7.25067 9.33016 7.20179 9.25628 7.14 9.19398C7.07803 9.1315 7.00429 9.0819 6.92305 9.04806C6.84181 9.01421 6.75468 8.99679 6.66667 8.99679C6.57866 8.99679 6.49152 9.01421 6.41028 9.04806C6.32905 9.0819 6.25531 9.1315 6.19334 9.19398ZM6.66667 0.333984C5.34813 0.333984 4.0592 0.724978 2.96287 1.45752C1.86654 2.19006 1.01206 3.23125 0.507473 4.44943C0.00288856 5.6676 -0.129134 7.00805 0.128101 8.30125C0.385336 9.59446 1.02027 10.7823 1.95262 11.7147C2.88497 12.647 4.07286 13.282 5.36607 13.5392C6.65927 13.7965 7.99972 13.6644 9.21789 13.1598C10.4361 12.6553 11.4773 11.8008 12.2098 10.7045C12.9423 9.60812 13.3333 8.31919 13.3333 7.00065C13.3333 6.12517 13.1609 5.25827 12.8259 4.44943C12.4908 3.64059 11.9998 2.90566 11.3807 2.28661C10.7617 1.66755 10.0267 1.17649 9.21789 0.841454C8.40905 0.506423 7.54215 0.333984 6.66667 0.333984ZM6.66667 12.334C5.61184 12.334 4.58069 12.0212 3.70363 11.4352C2.82657 10.8491 2.14298 10.0162 1.73931 9.04163C1.33564 8.06709 1.23003 6.99474 1.43581 5.96017C1.6416 4.9256 2.14955 3.9753 2.89543 3.22941C3.64131 2.48354 4.59162 1.97558 5.62619 1.7698C6.66075 1.56401 7.73311 1.66963 8.70765 2.07329C9.68219 2.47696 10.5151 3.16055 11.1012 4.03761C11.6872 4.91467 12 5.94582 12 7.00065C12 8.41514 11.4381 9.77169 10.4379 10.7719C9.43771 11.7721 8.08116 12.334 6.66667 12.334ZM6.66667 3.66732C6.31538 3.66709 5.97023 3.7594 5.66594 3.93495C5.36166 4.11049 5.10898 4.36309 4.93334 4.66732C4.8851 4.7432 4.85271 4.82805 4.83812 4.91677C4.82353 5.00549 4.82703 5.09624 4.84842 5.18358C4.86981 5.27091 4.90865 5.35301 4.96259 5.42494C5.01654 5.49687 5.08447 5.55715 5.16232 5.60215C5.24016 5.64714 5.3263 5.67593 5.41556 5.68677C5.50481 5.69761 5.59534 5.69029 5.68169 5.66524C5.76805 5.64018 5.84844 5.59792 5.91803 5.541C5.98763 5.48407 6.04499 5.41365 6.08667 5.33398C6.14541 5.23225 6.22998 5.14784 6.33183 5.0893C6.43369 5.03077 6.5492 5.00019 6.66667 5.00065C6.84348 5.00065 7.01305 5.07089 7.13807 5.19591C7.2631 5.32094 7.33334 5.49051 7.33334 5.66732C7.33334 5.84413 7.2631 6.0137 7.13807 6.13872C7.01305 6.26375 6.84348 6.33398 6.66667 6.33398C6.48986 6.33398 6.32029 6.40422 6.19527 6.52925C6.07024 6.65427 6 6.82384 6 7.00065V7.66732C6 7.84413 6.07024 8.0137 6.19527 8.13872C6.32029 8.26375 6.48986 8.33398 6.66667 8.33398C6.84348 8.33398 7.01305 8.26375 7.13807 8.13872C7.2631 8.0137 7.33334 7.84413 7.33334 7.66732V7.54732C7.77425 7.38733 8.14491 7.07747 8.38052 6.6719C8.61613 6.26632 8.7017 5.79085 8.62227 5.32858C8.54284 4.86631 8.30347 4.44666 7.946 4.14299C7.58853 3.83933 7.1357 3.67096 6.66667 3.66732Z" fill="#000000"/>
</svg>
