<svg width="16" height="16" viewBox="0 0 16 16" fill="none" xmlns="http://www.w3.org/2000/svg">
<path d="M5.33333 12.6667C4.8029 12.6667 4.29419 12.456 3.91912 12.0809C3.54405 11.7058 3.33333 11.1971 3.33333 10.6667V5.33333C3.33333 4.8029 3.54405 4.29419 3.91912 3.91912C4.29419 3.54405 4.8029 3.33333 5.33333 3.33333C5.51014 3.33333 5.67971 3.2631 5.80474 3.13807C5.92976 3.01305 6 2.84348 6 2.66667C6 2.48986 5.92976 2.32029 5.80474 2.19526C5.67971 2.07024 5.51014 2 5.33333 2C4.44928 2 3.60143 2.35119 2.97631 2.97631C2.35119 3.60143 2 4.44928 2 5.33333V10.6667C2 11.5507 2.35119 12.3986 2.97631 13.0237C3.60143 13.6488 4.44928 14 5.33333 14C5.51014 14 5.67971 13.9298 5.80474 13.8047C5.92976 13.6797 6 13.5101 6 13.3333C6 13.1565 5.92976 12.987 5.80474 12.8619C5.67971 12.7369 5.51014 12.6667 5.33333 12.6667ZM10.4733 10.4733C10.5358 10.4114 10.5854 10.3376 10.6193 10.2564C10.6531 10.1751 10.6705 10.088 10.6705 10C10.6705 9.91199 10.6531 9.82486 10.6193 9.74362C10.5854 9.66238 10.5358 9.58864 10.4733 9.52667L8.94 8L10.4733 6.47333C10.5989 6.3478 10.6694 6.17753 10.6694 6C10.6694 5.82247 10.5989 5.6522 10.4733 5.52667C10.3478 5.40113 10.1775 5.33061 10 5.33061C9.82247 5.33061 9.6522 5.40113 9.52667 5.52667L8 7.06L6.47333 5.52667C6.3478 5.40113 6.17753 5.33061 6 5.33061C5.82247 5.33061 5.6522 5.40113 5.52667 5.52667C5.40113 5.6522 5.33061 5.82247 5.33061 6C5.33061 6.17753 5.40113 6.3478 5.52667 6.47333L7.06 8L5.52667 9.52667C5.46418 9.58864 5.41459 9.66238 5.38074 9.74362C5.34689 9.82486 5.32947 9.91199 5.32947 10C5.32947 10.088 5.34689 10.1751 5.38074 10.2564C5.41459 10.3376 5.46418 10.4114 5.52667 10.4733C5.58864 10.5358 5.66238 10.5854 5.74362 10.6193C5.82486 10.6531 5.91199 10.6705 6 10.6705C6.08801 10.6705 6.17515 10.6531 6.25638 10.6193C6.33762 10.5854 6.41136 10.5358 6.47333 10.4733L8 8.94L9.52667 10.4733C9.58864 10.5358 9.66238 10.5854 9.74362 10.6193C9.82486 10.6531 9.91199 10.6705 10 10.6705C10.088 10.6705 10.1751 10.6531 10.2564 10.6193C10.3376 10.5854 10.4114 10.5358 10.4733 10.4733ZM10.6667 2C10.4899 2 10.3203 2.07024 10.1953 2.19526C10.0702 2.32029 10 2.48986 10 2.66667C10 2.84348 10.0702 3.01305 10.1953 3.13807C10.3203 3.2631 10.4899 3.33333 10.6667 3.33333C11.1971 3.33333 11.7058 3.54405 12.0809 3.91912C12.456 4.29419 12.6667 4.8029 12.6667 5.33333V10.6667C12.6667 11.1971 12.456 11.7058 12.0809 12.0809C11.7058 12.456 11.1971 12.6667 10.6667 12.6667C10.4899 12.6667 10.3203 12.7369 10.1953 12.8619C10.0702 12.987 10 13.1565 10 13.3333C10 13.5101 10.0702 13.6797 10.1953 13.8047C10.3203 13.9298 10.4899 14 10.6667 14C11.5507 14 12.3986 13.6488 13.0237 13.0237C13.6488 12.3986 14 11.5507 14 10.6667V5.33333C14 4.44928 13.6488 3.60143 13.0237 2.97631C12.3986 2.35119 11.5507 2 10.6667 2Z" fill="#000000"/>
</svg>
