<svg width="16" height="16" viewBox="0 0 16 16" fill="none" xmlns="http://www.w3.org/2000/svg">
<path d="M14 7.33301C13.8232 7.33301 13.6536 7.40325 13.5286 7.52827C13.4036 7.65329 13.3333 7.82286 13.3333 7.99967C13.3413 9.24836 12.9135 10.4607 12.1238 11.428C11.334 12.3952 10.2317 13.0568 9.00664 13.2987C7.7816 13.5407 6.51052 13.3479 5.41234 12.7535C4.31415 12.1592 3.4576 11.2005 2.99022 10.0425C2.52283 8.88457 2.47386 7.59989 2.85175 6.40973C3.22963 5.21956 4.01071 4.19843 5.06047 3.52219C6.11022 2.84596 7.36293 2.55695 8.60284 2.70495C9.84275 2.85295 10.9922 3.42869 11.8533 4.33301H10.2533C10.0765 4.33301 9.90695 4.40325 9.78193 4.52827C9.65691 4.65329 9.58667 4.82286 9.58667 4.99967C9.58667 5.17649 9.65691 5.34605 9.78193 5.47108C9.90695 5.5961 10.0765 5.66634 10.2533 5.66634H13.2733C13.4501 5.66634 13.6197 5.5961 13.7447 5.47108C13.8698 5.34605 13.94 5.17649 13.94 4.99967V1.99967C13.94 1.82286 13.8698 1.65329 13.7447 1.52827C13.6197 1.40325 13.4501 1.33301 13.2733 1.33301C13.0965 1.33301 12.927 1.40325 12.8019 1.52827C12.6769 1.65329 12.6067 1.82286 12.6067 1.99967V3.17967C11.4964 2.11838 10.0538 1.47298 8.52268 1.35256C6.99152 1.23214 5.46575 1.6441 4.20328 2.5188C2.94081 3.3935 2.01907 4.67728 1.59389 6.15313C1.1687 7.62899 1.26614 9.20639 1.86974 10.6187C2.47334 12.031 3.54607 13.1916 4.9066 13.9042C6.26713 14.6169 7.832 14.8379 9.33669 14.53C10.8414 14.222 12.1936 13.404 13.1648 12.2141C14.1359 11.0243 14.6664 9.53556 14.6667 7.99967C14.6667 7.82286 14.5964 7.65329 14.4714 7.52827C14.3464 7.40325 14.1768 7.33301 14 7.33301Z" fill="#000000"/>
</svg>
