<svg width="17" height="16" viewBox="0 0 17 16" fill="none" xmlns="http://www.w3.org/2000/svg">
<path d="M7.16667 12.0007C7.34348 12.0007 7.51305 11.9304 7.63807 11.8054C7.7631 11.6804 7.83333 11.5108 7.83333 11.334V7.33398C7.83333 7.15717 7.7631 6.9876 7.63807 6.86258C7.51305 6.73756 7.34348 6.66732 7.16667 6.66732C6.98986 6.66732 6.82029 6.73756 6.69526 6.86258C6.57024 6.9876 6.5 7.15717 6.5 7.33398V11.334C6.5 11.5108 6.57024 11.6804 6.69526 11.8054C6.82029 11.9304 6.98986 12.0007 7.16667 12.0007ZM13.8333 4.00065H11.1667V3.33398C11.1667 2.80355 10.956 2.29484 10.5809 1.91977C10.2058 1.5447 9.6971 1.33398 9.16667 1.33398H7.83333C7.3029 1.33398 6.79419 1.5447 6.41912 1.91977C6.04405 2.29484 5.83333 2.80355 5.83333 3.33398V4.00065H3.16667C2.98986 4.00065 2.82029 4.07089 2.69526 4.19591C2.57024 4.32094 2.5 4.49051 2.5 4.66732C2.5 4.84413 2.57024 5.0137 2.69526 5.13872C2.82029 5.26375 2.98986 5.33398 3.16667 5.33398H3.83333V12.6673C3.83333 13.1978 4.04405 13.7065 4.41912 14.0815C4.79419 14.4566 5.3029 14.6673 5.83333 14.6673H11.1667C11.6971 14.6673 12.2058 14.4566 12.5809 14.0815C12.956 13.7065 13.1667 13.1978 13.1667 12.6673V5.33398H13.8333C14.0101 5.33398 14.1797 5.26375 14.3047 5.13872C14.4298 5.0137 14.5 4.84413 14.5 4.66732C14.5 4.49051 14.4298 4.32094 14.3047 4.19591C14.1797 4.07089 14.0101 4.00065 13.8333 4.00065ZM7.16667 3.33398C7.16667 3.15717 7.2369 2.9876 7.36193 2.86258C7.48695 2.73756 7.65652 2.66732 7.83333 2.66732H9.16667C9.34348 2.66732 9.51305 2.73756 9.63807 2.86258C9.7631 2.9876 9.83333 3.15717 9.83333 3.33398V4.00065H7.16667V3.33398ZM11.8333 12.6673C11.8333 12.8441 11.7631 13.0137 11.6381 13.1387C11.513 13.2637 11.3435 13.334 11.1667 13.334H5.83333C5.65652 13.334 5.48695 13.2637 5.36193 13.1387C5.2369 13.0137 5.16667 12.8441 5.16667 12.6673V5.33398H11.8333V12.6673ZM9.83333 12.0007C10.0101 12.0007 10.1797 11.9304 10.3047 11.8054C10.4298 11.6804 10.5 11.5108 10.5 11.334V7.33398C10.5 7.15717 10.4298 6.9876 10.3047 6.86258C10.1797 6.73756 10.0101 6.66732 9.83333 6.66732C9.65652 6.66732 9.48695 6.73756 9.36193 6.86258C9.23691 6.9876 9.16667 7.15717 9.16667 7.33398V11.334C9.16667 11.5108 9.23691 11.6804 9.36193 11.8054C9.48695 11.9304 9.65652 12.0007 9.83333 12.0007Z" fill="#000000"/>
</svg>
