<svg width="20" height="20" viewBox="0 0 20 20" fill="none" xmlns="http://www.w3.org/2000/svg">
<path d="M9.16699 1.66675C13.307 1.66675 16.667 5.02675 16.667 9.16675C16.667 13.3067 13.307 16.6667 9.16699 16.6667C5.02699 16.6667 1.66699 13.3067 1.66699 9.16675C1.66699 5.02675 5.02699 1.66675 9.16699 1.66675ZM9.16699 15.0001C12.3895 15.0001 15.0003 12.3892 15.0003 9.16675C15.0003 5.94341 12.3895 3.33341 9.16699 3.33341C5.94366 3.33341 3.33366 5.94341 3.33366 9.16675C3.33366 12.3892 5.94366 15.0001 9.16699 15.0001ZM16.2378 15.0592L18.5953 17.4159L17.4162 18.5951L15.0595 16.2376L16.2378 15.0592V15.0592Z" fill="#000000"/>
</svg>
