<svg width="20" height="20" viewBox="0 0 20 20" fill="none" xmlns="http://www.w3.org/2000/svg">
<path d="M8.85128 5.34605C8.53111 5.34605 8.27999 5.08238 8.27999 4.76848C8.27999 4.44831 8.53111 4.19092 8.85128 4.19092H16.9498C17.2699 4.19092 17.5273 4.44203 17.5273 4.76848C17.5273 5.08238 17.2699 5.34605 16.9498 5.34605H8.85128ZM8.85128 8.63567C8.53111 8.63567 8.27999 8.372 8.27999 8.05811C8.27999 7.73793 8.53111 7.48054 8.85128 7.48054H16.9498C17.2699 7.48054 17.5273 7.73165 17.5273 8.05811C17.5273 8.372 17.2699 8.63567 16.9498 8.63567H8.85128ZM3.50879 11.7621C3.02539 12.0885 2.47293 11.9065 2.47293 11.3163V8.18366C2.47293 7.57471 3.00028 7.38637 3.50879 7.73165L5.68722 9.21952C6.07017 9.47691 6.08273 10.0356 5.68722 10.2993L3.50879 11.7621ZM8.85128 11.9253C8.53111 11.9253 8.27999 11.6616 8.27999 11.3477C8.27999 11.0276 8.53111 10.7702 8.85128 10.7702H16.9498C17.2699 10.7702 17.5273 11.0276 17.5273 11.3477C17.5273 11.6616 17.2699 11.9253 16.9498 11.9253H8.85128ZM12.2037 15.2149C11.8835 15.2149 11.6324 14.9512 11.6324 14.6373C11.6324 14.3172 11.8835 14.0598 12.2037 14.0598H16.9498C17.2699 14.0598 17.5273 14.3172 17.5273 14.6373C17.5273 14.9512 17.2699 15.2149 16.9498 15.2149H12.2037Z" fill="#000000"/>
</svg>
