<svg width="20" height="20" viewBox="0 0 20 20" fill="none" xmlns="http://www.w3.org/2000/svg">
<path d="M11.149 5.34654C11.4691 5.34654 11.7203 5.08287 11.7203 4.76897C11.7203 4.4488 11.4691 4.19141 11.149 4.19141H3.05047C2.73029 4.19141 2.4729 4.44252 2.4729 4.76897C2.4729 5.08287 2.73029 5.34654 3.05047 5.34654H11.149ZM11.149 8.63616C11.4691 8.63616 11.7203 8.37249 11.7203 8.05859C11.7203 7.73842 11.4691 7.48103 11.149 7.48103H3.05047C2.73029 7.48103 2.4729 7.73214 2.4729 8.05859C2.4729 8.37249 2.73029 8.63616 3.05047 8.63616H11.149ZM16.4915 11.7626C16.9749 12.089 17.5273 11.9069 17.5273 11.3168V8.18415C17.5273 7.5752 17 7.38686 16.4915 7.73214L14.313 9.22001C13.9301 9.4774 13.9175 10.0361 14.313 10.2998L16.4915 11.7626ZM11.149 11.9258C11.4691 11.9258 11.7203 11.6621 11.7203 11.3482C11.7203 11.028 11.4691 10.7706 11.149 10.7706H3.05047C2.73029 10.7706 2.4729 11.028 2.4729 11.3482C2.4729 11.6621 2.73029 11.9258 3.05047 11.9258H11.149ZM7.79656 15.2154C8.11673 15.2154 8.36785 14.9517 8.36785 14.6378C8.36785 14.3177 8.11673 14.0603 7.79656 14.0603H3.05047C2.73029 14.0603 2.4729 14.3177 2.4729 14.6378C2.4729 14.9517 2.73029 15.2154 3.05047 15.2154H7.79656Z" fill="#000000"/>
</svg>
