<svg width="20" height="20" viewBox="0 0 20 20" fill="none" xmlns="http://www.w3.org/2000/svg">
<path d="M13.3332 1.66797H6.66651C6.00347 1.66797 5.36758 1.93136 4.89874 2.4002C4.4299 2.86904 4.16651 3.50493 4.16651 4.16797V17.5013C4.16593 17.6481 4.20416 17.7925 4.27733 17.9198C4.35049 18.0472 4.45601 18.1529 4.58318 18.2263C4.70986 18.2994 4.85356 18.3379 4.99984 18.3379C5.14612 18.3379 5.28983 18.2994 5.41651 18.2263L9.99984 15.5763L14.5832 18.2263C14.7102 18.2983 14.8539 18.3356 14.9998 18.3346C15.1458 18.3356 15.2895 18.2983 15.4165 18.2263C15.5437 18.1529 15.6492 18.0472 15.7224 17.9198C15.7955 17.7925 15.8338 17.6481 15.8332 17.5013V4.16797C15.8332 3.50493 15.5698 2.86904 15.1009 2.4002C14.6321 1.93136 13.9962 1.66797 13.3332 1.66797ZM14.1665 16.0596L10.4165 13.893C10.2898 13.8198 10.1461 13.7813 9.99984 13.7813C9.85356 13.7813 9.70986 13.8198 9.58318 13.893L5.83318 16.0596V4.16797C5.83318 3.94695 5.92097 3.73499 6.07725 3.57871C6.23354 3.42243 6.4455 3.33464 6.66651 3.33464H13.3332C13.5542 3.33464 13.7662 3.42243 13.9224 3.57871C14.0787 3.73499 14.1665 3.94695 14.1665 4.16797V16.0596Z" fill="#000000"/>
</svg>
