<svg width="20" height="20" viewBox="0 0 20 20" fill="none" xmlns="http://www.w3.org/2000/svg">
<path d="M5.83317 12.5013H8.33317C8.55418 12.5013 8.76615 12.4135 8.92243 12.2572C9.07871 12.1009 9.1665 11.889 9.1665 11.668C9.1665 11.447 9.07871 11.235 8.92243 11.0787C8.76615 10.9224 8.55418 10.8346 8.33317 10.8346H5.83317C5.61216 10.8346 5.4002 10.9224 5.24392 11.0787C5.08764 11.235 4.99984 11.447 4.99984 11.668C4.99984 11.889 5.08764 12.1009 5.24392 12.2572C5.4002 12.4135 5.61216 12.5013 5.83317 12.5013ZM15.8332 4.16797H4.1665C3.50346 4.16797 2.86758 4.43136 2.39874 4.9002C1.9299 5.36904 1.6665 6.00493 1.6665 6.66797V14.168C1.6665 14.831 1.9299 15.4669 2.39874 15.9357C2.86758 16.4046 3.50346 16.668 4.1665 16.668H15.8332C16.4962 16.668 17.1321 16.4046 17.6009 15.9357C18.0698 15.4669 18.3332 14.831 18.3332 14.168V6.66797C18.3332 6.00493 18.0698 5.36904 17.6009 4.9002C17.1321 4.43136 16.4962 4.16797 15.8332 4.16797ZM16.6665 14.168C16.6665 14.389 16.5787 14.6009 16.4224 14.7572C16.2661 14.9135 16.0542 15.0013 15.8332 15.0013H4.1665C3.94549 15.0013 3.73353 14.9135 3.57725 14.7572C3.42097 14.6009 3.33317 14.389 3.33317 14.168V9.16797H16.6665V14.168ZM16.6665 7.5013H3.33317V6.66797C3.33317 6.44695 3.42097 6.23499 3.57725 6.07871C3.73353 5.92243 3.94549 5.83464 4.1665 5.83464H15.8332C16.0542 5.83464 16.2661 5.92243 16.4224 6.07871C16.5787 6.23499 16.6665 6.44695 16.6665 6.66797V7.5013Z" fill="#000000"/>
</svg>
