<svg width="20" height="20" viewBox="0 0 20 20" fill="none" xmlns="http://www.w3.org/2000/svg">
<path d="M16.6663 7.44935C16.6577 7.37279 16.6409 7.29737 16.6163 7.22435V7.14935C16.5763 7.06367 16.5228 6.9849 16.458 6.91602L11.458 1.91602C11.3891 1.8512 11.3104 1.79775 11.2247 1.75768C11.1998 1.75415 11.1746 1.75415 11.1497 1.75768C11.065 1.70913 10.9715 1.67797 10.8747 1.66602H5.83301C5.16997 1.66602 4.53408 1.92941 4.06524 2.39825C3.5964 2.86709 3.33301 3.50297 3.33301 4.16602V15.8327C3.33301 16.4957 3.5964 17.1316 4.06524 17.6005C4.53408 18.0693 5.16997 18.3327 5.83301 18.3327H14.1663C14.8294 18.3327 15.4653 18.0693 15.9341 17.6005C16.403 17.1316 16.6663 16.4957 16.6663 15.8327V7.49935C16.6663 7.49935 16.6663 7.49935 16.6663 7.44935ZM11.6663 4.50768L13.8247 6.66602H12.4997C12.2787 6.66602 12.0667 6.57822 11.9104 6.42194C11.7541 6.26566 11.6663 6.0537 11.6663 5.83268V4.50768ZM14.9997 15.8327C14.9997 16.0537 14.9119 16.2657 14.7556 16.4219C14.5993 16.5782 14.3874 16.666 14.1663 16.666H5.83301C5.61199 16.666 5.40003 16.5782 5.24375 16.4219C5.08747 16.2657 4.99967 16.0537 4.99967 15.8327V4.16602C4.99967 3.945 5.08747 3.73304 5.24375 3.57676C5.40003 3.42048 5.61199 3.33268 5.83301 3.33268H9.99967V5.83268C9.99967 6.49572 10.2631 7.13161 10.7319 7.60045C11.2007 8.06929 11.8366 8.33268 12.4997 8.33268H14.9997V15.8327ZM11.6663 11.666H10.833V10.8327C10.833 10.6117 10.7452 10.3997 10.5889 10.2434C10.4327 10.0871 10.2207 9.99935 9.99967 9.99935C9.77866 9.99935 9.5667 10.0871 9.41042 10.2434C9.25414 10.3997 9.16634 10.6117 9.16634 10.8327V11.666H8.33301C8.11199 11.666 7.90003 11.7538 7.74375 11.9101C7.58747 12.0664 7.49967 12.2783 7.49967 12.4993C7.49967 12.7204 7.58747 12.9323 7.74375 13.0886C7.90003 13.2449 8.11199 13.3327 8.33301 13.3327H9.16634V14.166C9.16634 14.387 9.25414 14.599 9.41042 14.7553C9.5667 14.9116 9.77866 14.9993 9.99967 14.9993C10.2207 14.9993 10.4327 14.9116 10.5889 14.7553C10.7452 14.599 10.833 14.387 10.833 14.166V13.3327H11.6663C11.8874 13.3327 12.0993 13.2449 12.2556 13.0886C12.4119 12.9323 12.4997 12.7204 12.4997 12.4993C12.4997 12.2783 12.4119 12.0664 12.2556 11.9101C12.0993 11.7538 11.8874 11.666 11.6663 11.666Z" fill="#000000"/>
</svg>
