<svg width="20" height="20" viewBox="0 0 20 20" fill="none" xmlns="http://www.w3.org/2000/svg">
<path d="M3.33301 10.0003C3.33301 10.2213 3.42081 10.4333 3.57709 10.5896C3.73337 10.7459 3.94533 10.8337 4.16634 10.8337H10.4913L8.57467 12.742C8.49657 12.8195 8.43457 12.9116 8.39226 13.0132C8.34996 13.1147 8.32818 13.2236 8.32818 13.3337C8.32818 13.4437 8.34996 13.5526 8.39226 13.6541C8.43457 13.7557 8.49657 13.8479 8.57467 13.9253C8.65214 14.0034 8.74431 14.0654 8.84586 14.1077C8.94741 14.15 9.05633 14.1718 9.16634 14.1718C9.27635 14.1718 9.38527 14.15 9.48682 14.1077C9.58837 14.0654 9.68054 14.0034 9.75801 13.9253L13.0913 10.592C13.1672 10.5127 13.2267 10.4193 13.2663 10.317C13.3497 10.1141 13.3497 9.88654 13.2663 9.68366C13.2267 9.58137 13.1672 9.48791 13.0913 9.40866L9.75801 6.07533C9.68031 5.99763 9.58807 5.93599 9.48655 5.89394C9.38503 5.85189 9.27622 5.83025 9.16634 5.83025C9.05646 5.83025 8.94765 5.85189 8.84613 5.89394C8.74461 5.93599 8.65237 5.99763 8.57467 6.07533C8.49697 6.15302 8.43534 6.24527 8.39329 6.34678C8.35124 6.4483 8.3296 6.55711 8.3296 6.66699C8.3296 6.77688 8.35124 6.88568 8.39329 6.9872C8.43534 7.08872 8.49697 7.18096 8.57467 7.25866L10.4913 9.16699H4.16634C3.94533 9.16699 3.73337 9.25479 3.57709 9.41107C3.42081 9.56735 3.33301 9.77931 3.33301 10.0003ZM14.1663 1.66699H5.83301C5.16997 1.66699 4.53408 1.93038 4.06524 2.39923C3.5964 2.86807 3.33301 3.50395 3.33301 4.16699V6.66699C3.33301 6.88801 3.42081 7.09997 3.57709 7.25625C3.73337 7.41253 3.94533 7.50033 4.16634 7.50033C4.38735 7.50033 4.59932 7.41253 4.7556 7.25625C4.91188 7.09997 4.99967 6.88801 4.99967 6.66699V4.16699C4.99967 3.94598 5.08747 3.73402 5.24375 3.57774C5.40003 3.42146 5.61199 3.33366 5.83301 3.33366H14.1663C14.3874 3.33366 14.5993 3.42146 14.7556 3.57774C14.9119 3.73402 14.9997 3.94598 14.9997 4.16699V15.8337C14.9997 16.0547 14.9119 16.2666 14.7556 16.4229C14.5993 16.5792 14.3874 16.667 14.1663 16.667H5.83301C5.61199 16.667 5.40003 16.5792 5.24375 16.4229C5.08747 16.2666 4.99967 16.0547 4.99967 15.8337V13.3337C4.99967 13.1126 4.91188 12.9007 4.7556 12.7444C4.59932 12.5881 4.38735 12.5003 4.16634 12.5003C3.94533 12.5003 3.73337 12.5881 3.57709 12.7444C3.42081 12.9007 3.33301 13.1126 3.33301 13.3337V15.8337C3.33301 16.4967 3.5964 17.1326 4.06524 17.6014C4.53408 18.0703 5.16997 18.3337 5.83301 18.3337H14.1663C14.8294 18.3337 15.4653 18.0703 15.9341 17.6014C16.4029 17.1326 16.6663 16.4967 16.6663 15.8337V4.16699C16.6663 3.50395 16.4029 2.86807 15.9341 2.39923C15.4653 1.93038 14.8294 1.66699 14.1663 1.66699Z" fill="#000000"/>
</svg>