<svg width="20" height="20" viewBox="0 0 20 20" fill="none" xmlns="http://www.w3.org/2000/svg">
<path d="M6.66658 13.7493C6.50177 13.7493 6.34065 13.7982 6.20361 13.8898C6.06657 13.9814 5.95976 14.1115 5.89669 14.2638C5.83361 14.4161 5.81711 14.5836 5.84926 14.7453C5.88142 14.9069 5.96079 15.0554 6.07733 15.1719C6.19387 15.2885 6.34236 15.3678 6.50401 15.4C6.66566 15.4322 6.83322 15.4157 6.98549 15.3526C7.13776 15.2895 7.26791 15.1827 7.35948 15.0457C7.45104 14.9086 7.49992 14.7475 7.49992 14.5827C7.49992 14.3617 7.41212 14.1497 7.25584 13.9934C7.09956 13.8371 6.8876 13.7493 6.66658 13.7493ZM9.99992 1.66602C6.66658 1.66602 3.33325 2.80768 3.33325 4.99935V14.9993C3.33325 17.191 6.66658 18.3327 9.99992 18.3327C13.3333 18.3327 16.6666 17.191 16.6666 14.9993V4.99935C16.6666 2.80768 13.3333 1.66602 9.99992 1.66602ZM14.9999 14.9993C14.9999 15.591 13.0999 16.666 9.99992 16.666C6.89992 16.666 4.99992 15.591 4.99992 14.9993V12.2743C6.55998 13.016 8.27316 13.3786 9.99992 13.3327C11.7267 13.3786 13.4399 13.016 14.9999 12.2743V14.9993ZM14.9999 9.99935C14.9999 10.591 13.0999 11.666 9.99992 11.666C6.89992 11.666 4.99992 10.591 4.99992 9.99935V7.27435C6.55998 8.01598 8.27316 8.3786 9.99992 8.33268C11.7267 8.3786 13.4399 8.01598 14.9999 7.27435V9.99935ZM9.99992 6.66602C6.89992 6.66602 4.99992 5.59102 4.99992 4.99935C4.99992 4.40768 6.89992 3.33268 9.99992 3.33268C13.0999 3.33268 14.9999 4.40768 14.9999 4.99935C14.9999 5.59102 13.0999 6.66602 9.99992 6.66602ZM6.66658 8.74935C6.50177 8.74935 6.34065 8.79822 6.20361 8.88979C6.06657 8.98136 5.95976 9.11151 5.89669 9.26378C5.83361 9.41605 5.81711 9.58361 5.84926 9.74526C5.88142 9.90691 5.96079 10.0554 6.07733 10.1719C6.19387 10.2885 6.34236 10.3678 6.50401 10.4C6.66566 10.4322 6.83322 10.4157 6.98549 10.3526C7.13776 10.2895 7.26791 10.1827 7.35948 10.0457C7.45104 9.90862 7.49992 9.7475 7.49992 9.58268C7.49992 9.36167 7.41212 9.14971 7.25584 8.99343C7.09956 8.83715 6.8876 8.74935 6.66658 8.74935Z" fill="#000000"/>
</svg>
