<svg width="20" height="20" viewBox="0 0 20 20" fill="none" xmlns="http://www.w3.org/2000/svg">
<path d="M8.33317 10.8346H2.49984C2.27882 10.8346 2.06686 10.9224 1.91058 11.0787C1.7543 11.235 1.6665 11.447 1.6665 11.668V17.5013C1.6665 17.7223 1.7543 17.9343 1.91058 18.0906C2.06686 18.2468 2.27882 18.3346 2.49984 18.3346H8.33317C8.55418 18.3346 8.76615 18.2468 8.92243 18.0906C9.07871 17.9343 9.1665 17.7223 9.1665 17.5013V11.668C9.1665 11.447 9.07871 11.235 8.92243 11.0787C8.76615 10.9224 8.55418 10.8346 8.33317 10.8346ZM7.49984 16.668H3.33317V12.5013H7.49984V16.668ZM17.4998 1.66797H11.6665C11.4455 1.66797 11.2335 1.75577 11.0772 1.91205C10.921 2.06833 10.8332 2.28029 10.8332 2.5013V8.33464C10.8332 8.55565 10.921 8.76761 11.0772 8.92389C11.2335 9.08017 11.4455 9.16797 11.6665 9.16797H17.4998C17.7209 9.16797 17.9328 9.08017 18.0891 8.92389C18.2454 8.76761 18.3332 8.55565 18.3332 8.33464V2.5013C18.3332 2.28029 18.2454 2.06833 18.0891 1.91205C17.9328 1.75577 17.7209 1.66797 17.4998 1.66797ZM16.6665 7.5013H12.4998V3.33464H16.6665V7.5013ZM17.4998 10.8346H11.6665C11.4455 10.8346 11.2335 10.9224 11.0772 11.0787C10.921 11.235 10.8332 11.447 10.8332 11.668V17.5013C10.8332 17.7223 10.921 17.9343 11.0772 18.0906C11.2335 18.2468 11.4455 18.3346 11.6665 18.3346H17.4998C17.7209 18.3346 17.9328 18.2468 18.0891 18.0906C18.2454 17.9343 18.3332 17.7223 18.3332 17.5013V11.668C18.3332 11.447 18.2454 11.235 18.0891 11.0787C17.9328 10.9224 17.7209 10.8346 17.4998 10.8346ZM16.6665 16.668H12.4998V12.5013H16.6665V16.668ZM8.33317 1.66797H2.49984C2.27882 1.66797 2.06686 1.75577 1.91058 1.91205C1.7543 2.06833 1.6665 2.28029 1.6665 2.5013V8.33464C1.6665 8.55565 1.7543 8.76761 1.91058 8.92389C2.06686 9.08017 2.27882 9.16797 2.49984 9.16797H8.33317C8.55418 9.16797 8.76615 9.08017 8.92243 8.92389C9.07871 8.76761 9.1665 8.55565 9.1665 8.33464V2.5013C9.1665 2.28029 9.07871 2.06833 8.92243 1.91205C8.76615 1.75577 8.55418 1.66797 8.33317 1.66797ZM7.49984 7.5013H3.33317V3.33464H7.49984V7.5013Z" fill="#000000"/>
</svg>
