<svg width="20" height="20" viewBox="0 0 20 20" fill="none" xmlns="http://www.w3.org/2000/svg">
<path d="M17.5001 8.33423C17.6095 8.33426 17.7179 8.31272 17.819 8.27085C17.9201 8.22898 18.012 8.1676 18.0894 8.09021C18.1668 8.01282 18.2282 7.92095 18.27 7.81983C18.3119 7.71871 18.3334 7.61034 18.3334 7.50089V5.00089C18.3335 4.82604 18.2785 4.6556 18.1762 4.51376C18.074 4.37193 17.9297 4.26589 17.7638 4.21069L10.2638 1.71069C10.0926 1.65373 9.90757 1.65373 9.73641 1.71069L2.23641 4.21069C2.07049 4.26589 1.92617 4.37193 1.82392 4.51376C1.72167 4.6556 1.66668 4.82604 1.66675 5.00089V7.50089C1.66672 7.61034 1.68826 7.71871 1.73012 7.81983C1.77199 7.92095 1.83337 8.01282 1.91076 8.09021C1.98815 8.1676 2.08003 8.22898 2.18114 8.27085C2.28226 8.31272 2.39064 8.33426 2.50008 8.33423H3.33341V14.3211C2.84736 14.4923 2.42622 14.8098 2.1278 15.2299C1.82939 15.65 1.66833 16.1522 1.66675 16.6676V18.3342C1.66672 18.4437 1.68826 18.552 1.73012 18.6532C1.77199 18.7543 1.83337 18.8462 1.91076 18.9235C1.98815 19.0009 2.08003 19.0623 2.18114 19.1042C2.28226 19.1461 2.39064 19.1676 2.50008 19.1676H17.5001C17.6095 19.1676 17.7179 19.1461 17.819 19.1042C17.9201 19.0623 18.012 19.0009 18.0894 18.9235C18.1668 18.8462 18.2282 18.7543 18.27 18.6532C18.3119 18.552 18.3334 18.4437 18.3334 18.3342V16.6676C18.3318 16.1522 18.1708 15.65 17.8724 15.2299C17.5739 14.8098 17.1528 14.4923 16.6667 14.3211V8.33423H17.5001ZM16.6667 17.5009H3.33341V16.6676C3.33364 16.4466 3.4215 16.2348 3.57774 16.0785C3.73397 15.9223 3.9458 15.8344 4.16675 15.8342H15.8334C16.0544 15.8344 16.2662 15.9223 16.4224 16.0785C16.5787 16.2348 16.6665 16.4466 16.6667 16.6676V17.5009ZM5.00008 14.1676V8.33423H6.66675V14.1676H5.00008ZM8.33342 14.1676V8.33423H11.6667V14.1676H8.33342ZM13.3334 14.1676V8.33423H15.0001V14.1676H13.3334ZM3.33341 6.66756V5.60148L10.0001 3.37898L16.6667 5.60148V6.66756H3.33341Z" fill="#000000"/>
</svg>
