<svg width="20" height="20" viewBox="0 0 20 20" fill="none" xmlns="http://www.w3.org/2000/svg">
<path d="M16.6668 7.44935C16.6581 7.37279 16.6414 7.29737 16.6168 7.22435V7.14935C16.5768 7.06367 16.5233 6.9849 16.4585 6.91602L11.4585 1.91602C11.3896 1.8512 11.3108 1.79775 11.2252 1.75768H11.1418C11.0608 1.71435 10.9737 1.68345 10.8835 1.66602H5.8335C5.17045 1.66602 4.53457 1.92941 4.06573 2.39825C3.59689 2.86709 3.3335 3.50297 3.3335 4.16602V15.8327C3.3335 16.4957 3.59689 17.1316 4.06573 17.6005C4.53457 18.0693 5.17045 18.3327 5.8335 18.3327H14.1668C14.8299 18.3327 15.4658 18.0693 15.9346 17.6005C16.4034 17.1316 16.6668 16.4957 16.6668 15.8327V7.49935C16.6668 7.49935 16.6668 7.49935 16.6668 7.44935ZM11.6668 4.50768L13.8252 6.66602H12.5002C12.2791 6.66602 12.0672 6.57822 11.9109 6.42194C11.7546 6.26566 11.6668 6.0537 11.6668 5.83268V4.50768ZM15.0002 15.8327C15.0002 16.0537 14.9124 16.2657 14.7561 16.4219C14.5998 16.5782 14.3878 16.666 14.1668 16.666H5.8335C5.61248 16.666 5.40052 16.5782 5.24424 16.4219C5.08796 16.2657 5.00016 16.0537 5.00016 15.8327V4.16602C5.00016 3.945 5.08796 3.73304 5.24424 3.57676C5.40052 3.42048 5.61248 3.33268 5.8335 3.33268H10.0002V5.83268C10.0002 6.49572 10.2636 7.13161 10.7324 7.60045C11.2012 8.06929 11.8371 8.33268 12.5002 8.33268H15.0002V15.8327ZM11.0752 11.9077L10.8335 12.1577V9.99935C10.8335 9.77834 10.7457 9.56637 10.5894 9.41009C10.4331 9.25381 10.2212 9.16602 10.0002 9.16602C9.77915 9.16602 9.56719 9.25381 9.41091 9.41009C9.25463 9.56637 9.16683 9.77834 9.16683 9.99935V12.1577L8.92516 11.9077C8.76824 11.7508 8.55541 11.6626 8.3335 11.6626C8.11158 11.6626 7.89875 11.7508 7.74183 11.9077C7.58491 12.0646 7.49675 12.2774 7.49675 12.4993C7.49675 12.7213 7.58491 12.9341 7.74183 13.091L9.4085 14.7577C9.48775 14.8335 9.5812 14.893 9.6835 14.9327C9.78325 14.9768 9.8911 14.9995 10.0002 14.9995C10.1092 14.9995 10.2171 14.9768 10.3168 14.9327C10.4191 14.893 10.5126 14.8335 10.5918 14.7577L12.2585 13.091C12.4154 12.9341 12.5036 12.7213 12.5036 12.4993C12.5036 12.2774 12.4154 12.0646 12.2585 11.9077C12.1016 11.7508 11.8887 11.6626 11.6668 11.6626C11.4449 11.6626 11.2321 11.7508 11.0752 11.9077Z" fill="#000000"/>
</svg>
