<svg width="20" height="20" viewBox="0 0 20 20" fill="none" xmlns="http://www.w3.org/2000/svg">
<path d="M13.3333 16.6666H6.66667C6.00363 16.6666 5.36774 16.4032 4.8989 15.9344C4.43006 15.4656 4.16667 14.8297 4.16667 14.1666V5.83329C4.16667 5.61228 4.07887 5.40032 3.92259 5.24404C3.76631 5.08776 3.55435 4.99996 3.33333 4.99996C3.11232 4.99996 2.90036 5.08776 2.74408 5.24404C2.5878 5.40032 2.5 5.61228 2.5 5.83329V14.1666C2.5 15.2717 2.93899 16.3315 3.72039 17.1129C4.50179 17.8943 5.5616 18.3333 6.66667 18.3333H13.3333C13.5543 18.3333 13.7663 18.2455 13.9226 18.0892C14.0789 17.9329 14.1667 17.721 14.1667 17.5C14.1667 17.2789 14.0789 17.067 13.9226 16.9107C13.7663 16.7544 13.5543 16.6666 13.3333 16.6666ZM8.33333 10.8333C8.33333 11.0543 8.42113 11.2663 8.57741 11.4225C8.73369 11.5788 8.94565 11.6666 9.16667 11.6666H13.3333C13.5543 11.6666 13.7663 11.5788 13.9226 11.4225C14.0789 11.2663 14.1667 11.0543 14.1667 10.8333C14.1667 10.6123 14.0789 10.4003 13.9226 10.244C13.7663 10.0878 13.5543 9.99996 13.3333 9.99996H9.16667C8.94565 9.99996 8.73369 10.0878 8.57741 10.244C8.42113 10.4003 8.33333 10.6123 8.33333 10.8333ZM17.5 7.44996C17.4913 7.3734 17.4746 7.29799 17.45 7.22496V7.14996C17.4099 7.06428 17.3565 6.98551 17.2917 6.91663L12.2917 1.91663C12.2228 1.85181 12.144 1.79836 12.0583 1.75829C12.0335 1.75476 12.0082 1.75476 11.9833 1.75829C11.8987 1.70974 11.8052 1.67858 11.7083 1.66663H8.33333C7.67029 1.66663 7.03441 1.93002 6.56557 2.39886C6.09673 2.8677 5.83333 3.50358 5.83333 4.16663V12.5C5.83333 13.163 6.09673 13.7989 6.56557 14.2677C7.03441 14.7366 7.67029 15 8.33333 15H15C15.663 15 16.2989 14.7366 16.7678 14.2677C17.2366 13.7989 17.5 13.163 17.5 12.5V7.49996C17.5 7.49996 17.5 7.49996 17.5 7.44996ZM12.5 4.50829L14.6583 6.66663H13.3333C13.1123 6.66663 12.9004 6.57883 12.7441 6.42255C12.5878 6.26627 12.5 6.05431 12.5 5.83329V4.50829ZM15.8333 12.5C15.8333 12.721 15.7455 12.9329 15.5893 13.0892C15.433 13.2455 15.221 13.3333 15 13.3333H8.33333C8.11232 13.3333 7.90036 13.2455 7.74408 13.0892C7.5878 12.9329 7.5 12.721 7.5 12.5V4.16663C7.5 3.94561 7.5878 3.73365 7.74408 3.57737C7.90036 3.42109 8.11232 3.33329 8.33333 3.33329H10.8333V5.83329C10.8356 6.11758 10.8863 6.3994 10.9833 6.66663H9.16667C8.94565 6.66663 8.73369 6.75442 8.57741 6.9107C8.42113 7.06698 8.33333 7.27895 8.33333 7.49996C8.33333 7.72097 8.42113 7.93293 8.57741 8.08922C8.73369 8.2455 8.94565 8.33329 9.16667 8.33329H15.8333V12.5Z" fill="#000000"/>
</svg>
