<svg width="20" height="20" viewBox="0 0 20 20" fill="none" xmlns="http://www.w3.org/2000/svg">
<path d="M5.00016 10.832H1.66683C1.44582 10.832 1.23385 10.9198 1.07757 11.0761C0.921293 11.2324 0.833496 11.4444 0.833496 11.6654V18.332C0.833496 18.553 0.921293 18.765 1.07757 18.9213C1.23385 19.0776 1.44582 19.1654 1.66683 19.1654H5.00016C5.22118 19.1654 5.43314 19.0776 5.58942 18.9213C5.7457 18.765 5.8335 18.553 5.8335 18.332V11.6654C5.8335 11.4444 5.7457 11.2324 5.58942 11.0761C5.43314 10.9198 5.22118 10.832 5.00016 10.832ZM4.16683 17.4987H2.50016V12.4987H4.16683V17.4987ZM18.3335 7.4987H15.0002C14.7791 7.4987 14.5672 7.58649 14.4109 7.74277C14.2546 7.89906 14.1668 8.11102 14.1668 8.33203V18.332C14.1668 18.553 14.2546 18.765 14.4109 18.9213C14.5672 19.0776 14.7791 19.1654 15.0002 19.1654H18.3335C18.5545 19.1654 18.7665 19.0776 18.9228 18.9213C19.079 18.765 19.1668 18.553 19.1668 18.332V8.33203C19.1668 8.11102 19.079 7.89906 18.9228 7.74277C18.7665 7.58649 18.5545 7.4987 18.3335 7.4987ZM17.5002 17.4987H15.8335V9.16536H17.5002V17.4987ZM11.6668 0.832031H8.3335C8.11248 0.832031 7.90052 0.919829 7.74424 1.07611C7.58796 1.23239 7.50016 1.44435 7.50016 1.66536V18.332C7.50016 18.553 7.58796 18.765 7.74424 18.9213C7.90052 19.0776 8.11248 19.1654 8.3335 19.1654H11.6668C11.8878 19.1654 12.0998 19.0776 12.2561 18.9213C12.4124 18.765 12.5002 18.553 12.5002 18.332V1.66536C12.5002 1.44435 12.4124 1.23239 12.2561 1.07611C12.0998 0.919829 11.8878 0.832031 11.6668 0.832031ZM10.8335 17.4987H9.16683V2.4987H10.8335V17.4987Z" fill="#000000"/>
</svg>
