<svg width="20" height="20" viewBox="0 0 20 20" fill="none" xmlns="http://www.w3.org/2000/svg">
<path d="M8.33352 14.6243L6.85852 16.0576C6.47175 16.4444 5.94717 16.6617 5.40019 16.6617C4.85321 16.6617 4.32863 16.4444 3.94186 16.0576C3.55508 15.6708 3.33779 15.1462 3.33779 14.5993C3.33779 14.0523 3.55508 13.5277 3.94186 13.1409L7.72519 9.34927C8.09653 8.97672 8.59687 8.76116 9.1227 8.7472C9.64853 8.73324 10.1596 8.92194 10.5502 9.27426L10.6502 9.3576C10.8082 9.51231 11.0212 9.59791 11.2424 9.59556C11.4635 9.59322 11.6746 9.50312 11.8294 9.3451C11.9841 9.18707 12.0697 8.97406 12.0673 8.75293C12.065 8.53179 11.9749 8.32064 11.8169 8.16593C11.7698 8.10512 11.7198 8.04671 11.6669 7.99093C10.9555 7.37203 10.0355 7.04664 9.09316 7.08068C8.15086 7.11472 7.25672 7.50564 6.59186 8.17426L2.75852 11.9659C2.10715 12.6749 1.75487 13.6082 1.77525 14.5707C1.79563 15.5333 2.18709 16.4508 2.86788 17.1316C3.54868 17.8124 4.46616 18.2038 5.42873 18.2242C6.3913 18.2446 7.32453 17.8923 8.03352 17.2409L9.47519 15.8326C9.61754 15.6773 9.69579 15.4739 9.6942 15.2632C9.69261 15.0526 9.61129 14.8503 9.46661 14.6972C9.32194 14.5441 9.12464 14.4514 8.91441 14.4379C8.70418 14.4244 8.49663 14.4909 8.33352 14.6243ZM17.2419 2.7576C16.5408 2.06094 15.5927 1.66992 14.6044 1.66992C13.616 1.66992 12.6679 2.06094 11.9669 2.7576L10.5252 4.16593C10.3828 4.32122 10.3046 4.52466 10.3062 4.73532C10.3078 4.94598 10.3891 5.14821 10.5338 5.30134C10.6784 5.45446 10.8757 5.54711 11.086 5.56064C11.2962 5.57417 11.5037 5.50758 11.6669 5.37426L13.1085 3.94093C13.4953 3.55416 14.0199 3.33687 14.5669 3.33687C15.1138 3.33687 15.6384 3.55416 16.0252 3.94093C16.412 4.32771 16.6292 4.85228 16.6292 5.39927C16.6292 5.94625 16.412 6.47082 16.0252 6.8576L12.2419 10.6493C11.8705 11.0218 11.3702 11.2374 10.8443 11.2513C10.3185 11.2653 9.80744 11.0766 9.41686 10.7243L9.31686 10.6409C9.15883 10.4862 8.94582 10.4006 8.72468 10.403C8.50355 10.4053 8.2924 10.4954 8.13769 10.6534C7.98298 10.8115 7.89738 11.0245 7.89972 11.2456C7.90207 11.4667 7.99216 11.6779 8.15019 11.8326C8.21072 11.8945 8.27471 11.9529 8.34186 12.0076C9.05409 12.6246 9.97371 12.9488 10.9154 12.9148C11.8572 12.8808 12.751 12.4911 13.4169 11.8243L17.2085 8.0326C17.9096 7.33599 18.3066 6.39029 18.3129 5.40197C18.3191 4.41365 17.9341 3.46301 17.2419 2.7576Z" fill="#000000"/>
</svg>
