<svg width="20" height="20" viewBox="0 0 20 20" fill="none" xmlns="http://www.w3.org/2000/svg">
<path d="M16.9497 7.76661L5.28305 1.93328C4.82263 1.70412 4.30273 1.62254 3.79425 1.69965C3.28576 1.77677 2.81343 2.00884 2.44166 2.36421C2.06989 2.71958 1.81676 3.18096 1.7168 3.68545C1.61683 4.18994 1.67489 4.71299 1.88305 5.18328L3.88305 9.65828C3.92843 9.76647 3.9518 9.88262 3.9518 9.99994C3.9518 10.1173 3.92843 10.2334 3.88305 10.3416L1.88305 14.8166C1.71363 15.1972 1.64201 15.6141 1.6747 16.0294C1.70738 16.4447 1.84334 16.8453 2.0702 17.1947C2.29707 17.5441 2.60766 17.8313 2.97374 18.0301C3.33982 18.229 3.74979 18.3332 4.16638 18.3333C4.55658 18.3294 4.94096 18.2383 5.29138 18.0666L16.9581 12.2333C17.3719 12.0251 17.7197 11.706 17.9628 11.3117C18.2059 10.9173 18.3346 10.4632 18.3346 9.99994C18.3346 9.5367 18.2059 9.08257 17.9628 8.68821C17.7197 8.29386 17.3719 7.97479 16.9581 7.76661H16.9497ZM16.2081 10.7416L4.54138 16.5749C4.38819 16.6485 4.21616 16.6735 4.04837 16.6465C3.88059 16.6195 3.72506 16.5419 3.60265 16.424C3.48023 16.3061 3.39679 16.1536 3.36349 15.987C3.3302 15.8203 3.34866 15.6475 3.41638 15.4916L5.40805 11.0166C5.43383 10.9569 5.45609 10.8956 5.47472 10.8333H11.2164C11.4374 10.8333 11.6494 10.7455 11.8056 10.5892C11.9619 10.4329 12.0497 10.221 12.0497 9.99994C12.0497 9.77893 11.9619 9.56697 11.8056 9.41069C11.6494 9.25441 11.4374 9.16661 11.2164 9.16661H5.47472C5.45609 9.10425 5.43383 9.04303 5.40805 8.98328L3.41638 4.50828C3.34866 4.35241 3.3302 4.17957 3.36349 4.01292C3.39679 3.84627 3.48023 3.69378 3.60265 3.5759C3.72506 3.45802 3.88059 3.38039 4.04837 3.3534C4.21616 3.32642 4.38819 3.35139 4.54138 3.42494L16.2081 9.25828C16.3446 9.32821 16.4591 9.43446 16.5391 9.56532C16.6191 9.69617 16.6614 9.84657 16.6614 9.99994C16.6614 10.1533 16.6191 10.3037 16.5391 10.4346C16.4591 10.5654 16.3446 10.6717 16.2081 10.7416Z" fill="#000000"/>
</svg>
