<svg width="17" height="16" viewBox="0 0 17 16" fill="none" xmlns="http://www.w3.org/2000/svg">
<path d="M14.4997 6.9987H13.833V6.33203C13.833 6.15522 13.7628 5.98565 13.6377 5.86063C13.5127 5.7356 13.3432 5.66536 13.1663 5.66536C12.9895 5.66536 12.82 5.7356 12.6949 5.86063C12.5699 5.98565 12.4997 6.15522 12.4997 6.33203V6.9987H11.833C11.6562 6.9987 11.4866 7.06894 11.3616 7.19396C11.2366 7.31898 11.1663 7.48855 11.1663 7.66536C11.1663 7.84218 11.2366 8.01174 11.3616 8.13677C11.4866 8.26179 11.6562 8.33203 11.833 8.33203H12.4997V8.9987C12.4997 9.17551 12.5699 9.34508 12.6949 9.4701C12.82 9.59513 12.9895 9.66536 13.1663 9.66536C13.3432 9.66536 13.5127 9.59513 13.6377 9.4701C13.7628 9.34508 13.833 9.17551 13.833 8.9987V8.33203H14.4997C14.6765 8.33203 14.8461 8.26179 14.9711 8.13677C15.0961 8.01174 15.1663 7.84218 15.1663 7.66536C15.1663 7.48855 15.0961 7.31898 14.9711 7.19396C14.8461 7.06894 14.6765 6.9987 14.4997 6.9987ZM9.36634 8.14536C9.72206 7.83745 10.0074 7.45662 10.2029 7.02871C10.3985 6.60081 10.4997 6.13584 10.4997 5.66536C10.4997 4.78131 10.1485 3.93346 9.52336 3.30834C8.89824 2.68322 8.0504 2.33203 7.16634 2.33203C6.28229 2.33203 5.43444 2.68322 4.80932 3.30834C4.1842 3.93346 3.83301 4.78131 3.83301 5.66536C3.833 6.13584 3.93421 6.60081 4.12976 7.02871C4.32531 7.45662 4.61062 7.83745 4.96634 8.14536C4.0331 8.56795 3.24132 9.25038 2.68566 10.1111C2.13 10.9717 1.83399 11.9742 1.83301 12.9987C1.83301 13.1755 1.90325 13.3451 2.02827 13.4701C2.15329 13.5951 2.32286 13.6654 2.49967 13.6654C2.67649 13.6654 2.84605 13.5951 2.97108 13.4701C3.0961 13.3451 3.16634 13.1755 3.16634 12.9987C3.16634 11.9378 3.58777 10.9204 4.33791 10.1703C5.08806 9.42013 6.10548 8.9987 7.16634 8.9987C8.22721 8.9987 9.24462 9.42013 9.99477 10.1703C10.7449 10.9204 11.1663 11.9378 11.1663 12.9987C11.1663 13.1755 11.2366 13.3451 11.3616 13.4701C11.4866 13.5951 11.6562 13.6654 11.833 13.6654C12.0098 13.6654 12.1794 13.5951 12.3044 13.4701C12.4294 13.3451 12.4997 13.1755 12.4997 12.9987C12.4987 11.9742 12.2027 10.9717 11.647 10.1111C11.0914 9.25038 10.2996 8.56795 9.36634 8.14536ZM7.16634 7.66536C6.77078 7.66536 6.3841 7.54807 6.0552 7.3283C5.7263 7.10854 5.46996 6.79618 5.31858 6.43073C5.16721 6.06528 5.1276 5.66315 5.20477 5.27518C5.28194 4.88722 5.47242 4.53086 5.75213 4.25115C6.03183 3.97145 6.3882 3.78096 6.77616 3.70379C7.16412 3.62662 7.56626 3.66623 7.93171 3.81761C8.29716 3.96898 8.60952 4.22533 8.82928 4.55422C9.04904 4.88312 9.16634 5.2698 9.16634 5.66536C9.16634 6.1958 8.95563 6.70451 8.58055 7.07958C8.20548 7.45465 7.69677 7.66536 7.16634 7.66536Z" fill="#000000"/>
</svg>
