<svg width="25" height="28" viewBox="0 0 25 28" fill="none" xmlns="http://www.w3.org/2000/svg">
<mask id="mask0_860:12013" style="mask-type:alpha" maskUnits="userSpaceOnUse" x="0" y="0" width="25" height="28">
<path d="M22.969 28H2.85133C1.77925 28 0.910156 27.1046 0.910156 26V2C0.910156 0.895431 1.77925 0 2.85133 0H15.9102L24.9102 9.27273V26C24.9102 27.1046 24.0411 28 22.969 28Z" fill="url(#paint0_linear_860:12013)"/>
</mask>
<g mask="url(#mask0_860:12013)">
<path d="M22.969 28H2.85133C1.77925 28 0.910156 27.1046 0.910156 26V2C0.910156 0.895431 1.77925 0 2.85133 0H15.9102L24.9102 9.27273V26C24.9102 27.1046 24.0411 28 22.969 28Z" fill="#6ABDF8"/>
<g opacity="0.27" filter="url(#filter0_f_860:12013)">
<rect x="5.14551" y="13.5459" width="15.7059" height="7.63636" fill="#0072A2" style="mix-blend-mode:darken"/>
</g>
<path d="M5.54317 19.7273C5.45487 19.7273 5.38052 19.6962 5.32011 19.6339C5.2597 19.5717 5.22949 19.4951 5.22949 19.4041V15.0448C5.22949 14.9538 5.2597 14.8772 5.32011 14.8149C5.38052 14.7479 5.45487 14.7144 5.54317 14.7144H6.94426C7.47402 14.7144 7.92246 14.8365 8.28958 15.0807C8.66134 15.3201 8.94017 15.6313 9.12605 16.0143C9.31193 16.3973 9.40487 16.7995 9.40487 17.2209C9.40487 17.6422 9.31193 18.0444 9.12605 18.4274C8.94017 18.8104 8.66134 19.124 8.28958 19.3682C7.92246 19.6076 7.47402 19.7273 6.94426 19.7273H5.54317ZM6.86758 19.1169C7.24864 19.1169 7.58323 19.0379 7.87134 18.8799C8.15946 18.7171 8.38252 18.4944 8.54052 18.2119C8.69852 17.9247 8.77752 17.5943 8.77752 17.2209C8.77752 16.8474 8.69852 16.5194 8.54052 16.2369C8.38252 15.9497 8.15946 15.727 7.87134 15.569C7.58323 15.4062 7.24864 15.3249 6.86758 15.3249H5.86382V19.1169H6.86758Z" fill="white"/>
<path d="M13.1061 19.7991C12.6182 19.7991 12.1906 19.689 11.8235 19.4688C11.4564 19.2485 11.1729 18.9445 10.9731 18.5567C10.7733 18.1689 10.6687 17.7236 10.6594 17.2209C10.6687 16.7181 10.7733 16.2729 10.9731 15.885C11.1729 15.4972 11.4564 15.1932 11.8235 14.9729C12.1906 14.7527 12.6182 14.6426 13.1061 14.6426C13.594 14.6426 14.0192 14.7527 14.3817 14.9729C14.7488 15.1932 15.0323 15.4996 15.2321 15.8922C15.4366 16.28 15.5435 16.7229 15.5528 17.2209C15.5435 17.7188 15.4366 18.1641 15.2321 18.5567C15.0323 18.9445 14.7488 19.2485 14.3817 19.4688C14.0192 19.689 13.594 19.7991 13.1061 19.7991ZM13.1061 19.1887C13.4779 19.1887 13.8008 19.1025 14.075 18.9301C14.3492 18.7578 14.5583 18.5232 14.7024 18.2263C14.8464 17.9295 14.9184 17.5943 14.9184 17.2209C14.9184 16.8474 14.8464 16.5122 14.7024 16.2154C14.5583 15.9185 14.3492 15.6839 14.075 15.5116C13.8008 15.3392 13.4779 15.253 13.1061 15.253C12.7297 15.253 12.4044 15.3392 12.1302 15.5116C11.8607 15.6839 11.6539 15.9185 11.5098 16.2154C11.3658 16.5122 11.2937 16.8474 11.2937 17.2209C11.2937 17.5943 11.3658 17.9295 11.5098 18.2263C11.6539 18.5232 11.8607 18.7578 12.1302 18.9301C12.4044 19.1025 12.7297 19.1887 13.1061 19.1887Z" fill="white"/>
<path d="M19.2439 19.7991C18.7792 19.7991 18.3609 19.6962 17.9892 19.4903C17.622 19.2796 17.3316 18.9804 17.1178 18.5926C16.9087 18.2 16.8042 17.7427 16.8042 17.2209C16.8042 16.699 16.9087 16.2441 17.1178 15.8563C17.3316 15.4637 17.622 15.1645 17.9892 14.9586C18.3609 14.7479 18.7792 14.6426 19.2439 14.6426C19.5599 14.6426 19.841 14.6809 20.0873 14.7575C20.3382 14.8341 20.5869 14.9442 20.8332 15.0879C20.9354 15.1453 20.9865 15.2363 20.9865 15.3608C20.9865 15.4326 20.9609 15.4972 20.9098 15.5547C20.8587 15.6073 20.7913 15.6337 20.7077 15.6337C20.6612 15.6337 20.6194 15.6241 20.5822 15.6049C20.3777 15.4948 20.1779 15.411 19.9827 15.3536C19.7876 15.2961 19.5622 15.2674 19.3066 15.2674C18.9069 15.2674 18.5654 15.3536 18.2819 15.5259C18.0031 15.6935 17.7917 15.9257 17.6476 16.2226C17.5082 16.5146 17.4385 16.8474 17.4385 17.2209C17.4385 17.5943 17.5082 17.9295 17.6476 18.2263C17.7917 18.5184 18.0031 18.7506 18.2819 18.9229C18.5654 19.0905 18.9069 19.1743 19.3066 19.1743C19.5622 19.1743 19.7876 19.1456 19.9827 19.0881C20.1779 19.0307 20.3777 18.9469 20.5822 18.8368C20.6194 18.8176 20.6612 18.808 20.7077 18.808C20.7913 18.808 20.8587 18.8344 20.9098 18.887C20.9609 18.9397 20.9865 19.0043 20.9865 19.0809C20.9865 19.2054 20.9354 19.2964 20.8332 19.3539C20.5869 19.4975 20.3382 19.6076 20.0873 19.6842C19.841 19.7608 19.5599 19.7991 19.2439 19.7991Z" fill="white"/>
<path fill-rule="evenodd" clip-rule="evenodd" d="M8.38416 19.5207L8.38367 19.521C7.98268 19.7825 7.49979 19.9083 6.94397 19.9083H5.54288C5.40953 19.9083 5.28976 19.8593 5.19504 19.7617C5.10032 19.6641 5.05273 19.5407 5.05273 19.4033V15.044C5.05273 14.9077 5.09954 14.7852 5.19273 14.688C5.28601 14.5857 5.4063 14.5318 5.54288 14.5318H6.94397C7.49992 14.5318 7.98294 14.66 8.38392 14.9264C8.7811 15.1824 9.08258 15.518 9.2836 15.9322C9.48153 16.34 9.58106 16.77 9.58106 17.2201C9.58106 17.6701 9.48153 18.1001 9.2836 18.5079C9.08256 18.9222 8.78115 19.26 8.38416 19.5207ZM8.28929 15.0799C7.92218 14.8357 7.47373 14.7136 6.94397 14.7136H5.54288C5.45459 14.7136 5.38023 14.7471 5.31982 14.8141C5.25941 14.8764 5.2292 14.953 5.2292 15.044V19.4033C5.2292 19.4943 5.25941 19.5709 5.31982 19.6331C5.38023 19.6954 5.45459 19.7265 5.54288 19.7265H6.94397C7.47373 19.7265 7.92218 19.6068 8.28929 19.3674C8.66106 19.1232 8.93988 18.8096 9.12576 18.4266C9.31165 18.0436 9.40459 17.6414 9.40459 17.2201C9.40459 16.7987 9.31165 16.3965 9.12576 16.0135C8.93988 15.6305 8.66106 15.3193 8.28929 15.0799ZM8.38702 16.3264L8.3867 16.3258C8.24555 16.0691 8.04724 15.8708 7.78814 15.7287L7.78717 15.7282L7.78621 15.7277C7.52798 15.5818 7.22346 15.5059 6.86729 15.5059H6.04V18.9342H6.86729C7.22385 18.9342 7.52876 18.8606 7.78717 18.7191C8.04741 18.5718 8.24601 18.3728 8.38703 18.1209C8.52789 17.8645 8.60076 17.566 8.60076 17.2201C8.60076 16.8738 8.52776 16.578 8.38733 16.3269L8.38702 16.3264ZM8.54023 18.2111C8.38223 18.4936 8.15918 18.7163 7.87106 18.8791C7.58294 19.0371 7.24835 19.1161 6.86729 19.1161H5.86353V15.3241H6.86729C7.24835 15.3241 7.58294 15.4054 7.87106 15.5682C8.15918 15.7262 8.38223 15.9489 8.54023 16.2361C8.69823 16.5186 8.77723 16.8466 8.77723 17.2201C8.77723 17.5935 8.69823 17.9239 8.54023 18.2111ZM10.4826 17.2201L10.4827 17.2166C10.4924 16.6895 10.6023 16.2155 10.8169 15.799C11.0321 15.3813 11.3388 15.0524 11.7344 14.815C12.1323 14.5763 12.5914 14.46 13.1058 14.46C13.62 14.46 14.077 14.5762 14.4707 14.8153C14.8663 15.0527 15.1726 15.384 15.3875 15.8058C15.6067 16.2221 15.7192 16.6938 15.7289 17.2166L15.729 17.2201L15.7289 17.2235C15.7192 17.7467 15.6066 18.2207 15.3875 18.6414C15.1724 19.0588 14.866 19.3876 14.4707 19.6248C14.077 19.8639 13.62 19.9801 13.1058 19.9801C12.5914 19.9801 12.1323 19.8638 11.7344 19.6251C11.3388 19.3877 11.0321 19.0588 10.8169 18.6411C10.6023 18.2246 10.4924 17.7506 10.4827 17.2235L10.4826 17.2201ZM15.2318 18.5559C15.4363 18.1633 15.5432 17.718 15.5525 17.2201C15.5432 16.7221 15.4363 16.2792 15.2318 15.8914C15.032 15.4988 14.7485 15.1924 14.3814 14.9721C14.019 14.7519 13.5937 14.6418 13.1058 14.6418C12.6179 14.6418 12.1903 14.7519 11.8232 14.9721C11.4561 15.1924 11.1726 15.4964 10.9728 15.8842C10.773 16.2721 10.6684 16.7173 10.6591 17.2201C10.6684 17.7228 10.773 18.1681 10.9728 18.5559C11.1726 18.9437 11.4561 19.2477 11.8232 19.468C12.1903 19.6882 12.6179 19.7983 13.1058 19.7983C13.5937 19.7983 14.019 19.6882 14.3814 19.468C14.7485 19.2477 15.032 18.9437 15.2318 18.5559ZM17.9042 19.649L17.903 19.6483C17.5068 19.421 17.1933 19.0974 16.9641 18.6816L16.9635 18.6804L16.9628 18.6793C16.7372 18.2557 16.6274 17.7674 16.6274 17.2201C16.6274 16.6727 16.7372 16.1864 16.9633 15.7672L16.9636 15.7666C17.1928 15.3456 17.5067 15.0213 17.9042 14.7983C18.3043 14.5716 18.7522 14.46 19.2436 14.46C19.5729 14.46 19.8716 14.4998 20.1375 14.5825C20.4018 14.6632 20.6622 14.7787 20.9187 14.9282C20.9935 14.9705 21.0569 15.0295 21.1006 15.1073C21.1444 15.1852 21.1627 15.2717 21.1627 15.36C21.1627 15.4813 21.1178 15.5889 21.0396 15.6767L21.037 15.6796L21.0343 15.6824C20.9449 15.7746 20.8299 15.8147 20.7074 15.8147C20.6368 15.8147 20.5675 15.8 20.503 15.7668L20.5016 15.766L20.5002 15.7653C20.3049 15.6601 20.1162 15.5812 19.934 15.5276C19.758 15.4758 19.5495 15.4484 19.3063 15.4484C18.9315 15.4484 18.6223 15.5291 18.3713 15.6817L18.3706 15.6822C18.1215 15.8319 17.9341 16.0377 17.8054 16.3026C17.6797 16.5661 17.6147 16.8706 17.6147 17.2201C17.6147 17.569 17.6795 17.876 17.8054 18.1447C17.9338 18.4043 18.1211 18.6105 18.3709 18.7653C18.622 18.9134 18.9314 18.9917 19.3063 18.9917C19.5495 18.9917 19.758 18.9643 19.934 18.9125C20.1162 18.8589 20.3049 18.78 20.5002 18.6748L20.5016 18.6741L20.503 18.6733C20.5674 18.6401 20.6368 18.6254 20.7074 18.6254C20.8299 18.6254 20.9449 18.6655 21.0343 18.7577C21.1196 18.8455 21.1627 18.9569 21.1627 19.0801C21.1627 19.1684 21.1444 19.2549 21.1006 19.3328C21.0569 19.4106 20.9935 19.4696 20.9187 19.5119C20.6622 19.6614 20.4018 19.7769 20.1375 19.8576C19.8716 19.9403 19.5729 19.9801 19.2436 19.9801C18.7527 19.9801 18.3053 19.8712 17.9053 19.6497L17.9042 19.649ZM20.087 19.6834C20.338 19.6068 20.5866 19.4967 20.8329 19.3531C20.9351 19.2956 20.9862 19.2046 20.9862 19.0801C20.9862 19.0035 20.9607 18.9389 20.9095 18.8862C20.8584 18.8336 20.791 18.8072 20.7074 18.8072C20.6609 18.8072 20.6191 18.8168 20.5819 18.836C20.3775 18.9461 20.1776 19.0299 19.9825 19.0873C19.7873 19.1448 19.5619 19.1735 19.3063 19.1735C18.9067 19.1735 18.5651 19.0897 18.2816 18.9221C18.0028 18.7498 17.7914 18.5176 17.6473 18.2255C17.5079 17.9287 17.4382 17.5935 17.4382 17.2201C17.4382 16.8466 17.5079 16.5138 17.6473 16.2218C17.7914 15.9249 18.0028 15.6927 18.2816 15.5251C18.5651 15.3528 18.9067 15.2666 19.3063 15.2666C19.5619 15.2666 19.7873 15.2953 19.9825 15.3528C20.1776 15.4102 20.3775 15.494 20.5819 15.6041C20.6191 15.6233 20.6609 15.6329 20.7074 15.6329C20.791 15.6329 20.8584 15.6065 20.9095 15.5539C20.9607 15.4964 20.9862 15.4318 20.9862 15.36C20.9862 15.2355 20.9351 15.1445 20.8329 15.0871C20.5866 14.9434 20.338 14.8333 20.087 14.7567C19.8407 14.6801 19.5596 14.6418 19.2436 14.6418C18.7789 14.6418 18.3606 14.7471 17.9889 14.9578C17.6217 15.1637 17.3313 15.4629 17.1175 15.8555C16.9084 16.2433 16.8039 16.6982 16.8039 17.2201C16.8039 17.7419 16.9084 18.1992 17.1175 18.5918C17.3313 18.9796 17.6217 19.2788 17.9889 19.4895C18.3606 19.6954 18.7789 19.7983 19.2436 19.7983C19.5596 19.7983 19.8407 19.76 20.087 19.6834ZM13.1058 19.0061C13.4503 19.0061 13.7404 18.9265 13.9828 18.7741C14.2286 18.6196 14.4149 18.4106 14.5442 18.1442C14.6746 17.8756 14.7417 17.5688 14.7417 17.2201C14.7417 16.8713 14.6746 16.5645 14.5442 16.2959C14.4149 16.0295 14.2286 15.8205 13.9828 15.666C13.7404 15.5136 13.4503 15.4341 13.1058 15.4341C12.7564 15.4341 12.4643 15.5137 12.2224 15.6656C11.9814 15.8199 11.797 16.0289 11.6674 16.2959C11.537 16.5645 11.4699 16.8713 11.4699 17.2201C11.4699 17.5688 11.537 17.8756 11.6674 18.1442C11.797 18.4112 11.9813 18.6202 12.2224 18.7745C12.4643 18.9264 12.7564 19.0061 13.1058 19.0061ZM12.1299 18.9293C12.4041 19.1017 12.7294 19.1879 13.1058 19.1879C13.4776 19.1879 13.8005 19.1017 14.0747 18.9293C14.3489 18.757 14.558 18.5224 14.7021 18.2255C14.8461 17.9287 14.9182 17.5935 14.9182 17.2201C14.9182 16.8466 14.8461 16.5114 14.7021 16.2146C14.558 15.9177 14.3489 15.6831 14.0747 15.5108C13.8005 15.3384 13.4776 15.2522 13.1058 15.2522C12.7294 15.2522 12.4041 15.3384 12.1299 15.5108C11.8604 15.6831 11.6536 15.9177 11.5095 16.2146C11.3655 16.5114 11.2935 16.8466 11.2935 17.2201C11.2935 17.5935 11.3655 17.9287 11.5095 18.2255C11.6536 18.5224 11.8604 18.757 12.1299 18.9293Z" fill="white"/>
<g opacity="0.7" filter="url(#filter1_d_860:12013)">
<path d="M24.9102 9.27273H17.8513C16.7793 9.27273 15.9102 8.3773 15.9102 7.27273V0L24.9102 9.27273Z" fill="#009FE3"/>
</g>
</g>
<defs>
<filter id="filter0_f_860:12013" x="-33.8545" y="-25.4541" width="93.7061" height="85.6367" filterUnits="userSpaceOnUse" color-interpolation-filters="sRGB">
<feFlood flood-opacity="0" result="BackgroundImageFix"/>
<feBlend mode="normal" in="SourceGraphic" in2="BackgroundImageFix" result="shape"/>
<feGaussianBlur stdDeviation="19.5" result="effect1_foregroundBlur_860:12013"/>
</filter>
<filter id="filter1_d_860:12013" x="-7.08984" y="-24" width="59" height="59.2725" filterUnits="userSpaceOnUse" color-interpolation-filters="sRGB">
<feFlood flood-opacity="0" result="BackgroundImageFix"/>
<feColorMatrix in="SourceAlpha" type="matrix" values="0 0 0 0 0 0 0 0 0 0 0 0 0 0 0 0 0 0 127 0" result="hardAlpha"/>
<feOffset dx="2" dy="1"/>
<feGaussianBlur stdDeviation="12.5"/>
<feColorMatrix type="matrix" values="0 0 0 0 0 0 0 0 0 0 0 0 0 0 0 0 0 0 0.33 0"/>
<feBlend mode="normal" in2="BackgroundImageFix" result="effect1_dropShadow_860:12013"/>
<feBlend mode="normal" in="SourceGraphic" in2="effect1_dropShadow_860:12013" result="shape"/>
</filter>
<linearGradient id="paint0_linear_860:12013" x1="12.9102" y1="0" x2="12.9102" y2="28" gradientUnits="userSpaceOnUse">
<stop stop-color="#FF7979"/>
<stop offset="1" stop-color="#E85555"/>
</linearGradient>
</defs>
</svg>
