<svg width="32" height="30" viewBox="0 0 32 30" fill="none" xmlns="http://www.w3.org/2000/svg">
<path d="M11.1985 12.3535C10.6684 13.9436 13.2966 15.335 14.6769 15.8319C9.37646 13.5792 12.9101 9.92414 15.3395 8.37817C14.18 9.04073 11.7285 10.7634 11.1985 12.3535Z" fill="white"/>
<path fill-rule="evenodd" clip-rule="evenodd" d="M15.5637 8.2423C15.6373 8.36424 15.6001 8.52263 15.4799 8.5991C14.8864 8.97682 14.2259 9.48323 13.6516 10.0625C13.0753 10.6439 12.5988 11.2856 12.3545 11.9324C12.1129 12.5719 12.101 13.2056 12.4321 13.8075C12.7688 14.4194 13.4821 15.0389 14.7792 15.5902C14.9098 15.6457 14.9726 15.7951 14.9208 15.9273C14.8689 16.0595 14.7213 16.1265 14.5877 16.0784C13.8811 15.824 12.8505 15.3399 12.0574 14.7074C11.2851 14.0915 10.6263 13.2394 10.9493 12.2702C11.2382 11.4036 12.0316 10.5362 12.8611 9.8192C13.6998 9.09424 14.6169 8.48842 15.209 8.15008C15.3327 8.07941 15.4901 8.12035 15.5637 8.2423ZM11.965 11.504C11.7288 11.819 11.5479 12.1333 11.447 12.4361C11.2982 12.8823 11.4578 13.3376 11.8393 13.7817C11.5622 13.1027 11.615 12.4055 11.8638 11.747C11.8946 11.6655 11.9284 11.5845 11.965 11.504Z" fill="white"/>
<path d="M21.4682 23.9486C21.9982 25.5388 19.2044 27.427 17.8241 27.924C24.4497 23.6173 17.7689 21.6849 15.3395 20.1389C16.499 20.8015 20.9381 22.3585 21.4682 23.9486Z" fill="white"/>
<path fill-rule="evenodd" clip-rule="evenodd" d="M15.1143 20.0033C15.0407 20.1252 15.0779 20.2836 15.198 20.3601C15.6048 20.6189 16.1348 20.892 16.6903 21.1782C16.9776 21.3262 17.2718 21.4778 17.5592 21.6327C18.4224 22.0979 19.2447 22.6022 19.7859 23.176C20.3187 23.7409 20.5499 24.3374 20.3229 25.0258C20.0845 25.7486 19.3245 26.6353 17.6805 27.7039C17.5688 27.7765 17.5293 27.9212 17.5885 28.0405C17.6478 28.1598 17.787 28.2157 17.9123 28.1706C18.636 27.9101 19.7091 27.2954 20.5385 26.54C20.9537 26.1618 21.3208 25.7367 21.5493 25.2901C21.7788 24.8415 21.878 24.3505 21.7163 23.8656C21.557 23.3877 21.1235 22.9516 20.6063 22.5654C20.0798 22.1723 19.4236 21.8 18.758 21.4619C18.0911 21.1233 17.4055 20.8145 16.8186 20.5507L16.7954 20.5403C16.212 20.2782 15.7412 20.0666 15.469 19.9111C15.3453 19.8404 15.1879 19.8813 15.1143 20.0033ZM20.3619 23.0384C20.8225 23.3928 21.1179 23.7291 21.2187 24.0314C21.322 24.3415 21.2707 24.6829 21.0823 25.0511C20.9507 25.3084 20.7568 25.5686 20.52 25.8225C20.6533 25.6076 20.7529 25.397 20.8211 25.1901C21.0947 24.3606 20.8499 23.6438 20.3619 23.0384Z" fill="white"/>
<path d="M31.7374 8.04726C31.7374 4.20443 30.7436 2.69159 30.2467 2.41553C26.9339 3.24372 20.6948 6.61172 17.9894 8.2129C15.6704 9.86929 10.0387 13.3477 16.8299 15.1697C26.3053 17.7119 29.7498 19.5316 31.7374 21.6297V8.04726Z" fill="#323232"/>
<path fill-rule="evenodd" clip-rule="evenodd" d="M30.1831 2.16091C30.2476 2.14477 30.3159 2.15377 30.374 2.18608C30.5478 2.2826 30.7309 2.46522 30.9064 2.72429C31.0846 2.98736 31.2649 3.34381 31.4261 3.80755C31.7487 4.73502 31.9997 6.10441 31.9997 8.0471V21.6295C31.9997 21.7369 31.9343 21.8334 31.8345 21.8732C31.7348 21.9129 31.6209 21.8878 31.547 21.8099C29.6152 19.7708 26.2383 17.9654 16.7619 15.4229C15.0532 14.9645 14.0464 14.3845 13.5992 13.6886C13.1285 12.9561 13.3219 12.1798 13.7735 11.486C14.2225 10.796 14.9603 10.1271 15.7128 9.53604C16.2696 9.09869 16.8507 8.69189 17.3466 8.34471C17.5223 8.22165 17.6874 8.10608 17.8369 7.9993C17.843 7.99494 17.8493 7.99084 17.8558 7.98702C19.2136 7.18337 21.4555 5.93794 23.7738 4.78916C26.0862 3.64333 28.4965 2.58254 30.1831 2.16091ZM18.1326 8.43275C17.9787 8.54262 17.8121 8.65925 17.6368 8.78199C17.1436 9.12731 16.5813 9.52097 16.0369 9.94858C15.2934 10.5325 14.613 11.1577 14.2131 11.7721C13.8158 12.3827 13.7297 12.9212 14.0406 13.405C14.375 13.9256 15.211 14.4637 16.8979 14.9162C25.7085 17.2801 29.3629 19.0316 31.4751 21.0001V8.0471C31.4751 6.14696 31.2293 4.83852 30.9306 3.97985C30.7813 3.55052 30.62 3.23682 30.4721 3.0185C30.365 2.86049 30.2697 2.75922 30.1967 2.69894C28.575 3.12427 26.2652 4.1401 24.0067 5.25921C21.7064 6.39905 19.4811 7.63502 18.1326 8.43275Z" fill="#323232"/>
<path d="M0.266593 24.4458V6.55674C0.134081 2.05135 3.41374 0.483303 5.07013 0.262451H25.2781C31.2411 0.262451 27.2658 1.58756 24.4499 2.08448C18.4344 3.14604 10.7019 6.88801 7.88599 8.71004C6.78173 9.26217 4.67259 11.1946 5.07013 14.5074C5.56704 18.6484 12.1926 20.8017 15.1741 22.4581C18.1556 24.1145 15.8367 25.7709 15.3397 25.9365C14.8428 26.1021 5.07013 29.5806 2.75118 28.5867C0.896021 27.7917 0.321806 25.4948 0.266593 24.4458Z" fill="white"/>
<path fill-rule="evenodd" clip-rule="evenodd" d="M5.03506 0.00230086C5.04655 0.000768643 5.05813 0 5.06972 0H25.2777C26.7644 0 27.6728 0.0811421 28.1382 0.22678C28.2569 0.263895 28.3655 0.310637 28.4511 0.373928C28.5377 0.438039 28.6251 0.538592 28.6395 0.681384C28.6536 0.820651 28.5912 0.933438 28.53 1.00855C28.4681 1.08462 28.3855 1.14998 28.2994 1.20636C27.9624 1.42719 27.3525 1.64822 26.6778 1.84209C25.9927 2.03897 25.2072 2.21696 24.4951 2.34263C18.5235 3.39644 10.8238 7.12113 8.02808 8.9301C8.01996 8.93536 8.01155 8.94016 8.00289 8.94449C6.96815 9.46186 4.94935 11.3027 5.33015 14.476C5.56265 16.4135 7.2395 17.9299 9.3256 19.1898C10.3594 19.8142 11.4728 20.3634 12.5199 20.8624C12.7244 20.9599 12.9267 21.0556 13.1256 21.1496C13.9392 21.5344 14.6945 21.8917 15.3011 22.2286C16.0708 22.6563 16.5353 23.1034 16.7622 23.5603C16.9946 24.0282 16.9628 24.4761 16.8028 24.8576C16.6467 25.2299 16.371 25.5359 16.1122 25.7558C15.8568 25.9728 15.5895 26.1295 15.4223 26.1852C15.396 26.194 15.3425 26.2124 15.2643 26.2394C14.6194 26.4622 12.2987 27.2638 9.79766 27.9492C8.39596 28.3334 6.93017 28.6832 5.66537 28.8744C5.03311 28.97 4.44517 29.0268 3.93728 29.0271C3.43477 29.0275 2.98615 28.9728 2.64745 28.8277C1.64173 28.3966 0.99564 27.5638 0.596591 26.7239C0.197856 25.8847 0.0334509 25.014 0.00425822 24.4594C0.00401658 24.4548 0.00389569 24.4502 0.00389569 24.4456V6.56041C-0.0634644 4.23758 0.750865 2.64903 1.81424 1.61472C2.87006 0.587741 4.15839 0.11919 5.03506 0.00230086ZM5.08745 0.524588C4.30765 0.632424 3.13801 1.05892 2.18 1.99076C1.22317 2.92145 0.46424 4.36842 0.52837 6.54887L0.528484 6.55658V24.4386C0.555512 24.9335 0.706114 25.732 1.07042 26.4988C1.43607 27.2684 2.00467 27.9815 2.8541 28.3455C3.09514 28.4488 3.45918 28.5029 3.93693 28.5025C4.40928 28.5022 4.96917 28.4491 5.58697 28.3557C6.82229 28.169 8.26553 27.8252 9.65899 27.4433C12.1387 26.7637 14.4373 25.97 15.0918 25.744C15.1727 25.7161 15.2285 25.6968 15.2564 25.6875C15.3377 25.6604 15.5466 25.5479 15.7726 25.356C15.9951 25.167 16.206 24.9243 16.3191 24.6547C16.4282 24.3944 16.4482 24.1073 16.2924 23.7936C16.1311 23.4688 15.7673 23.0878 15.0463 22.6872C14.4563 22.3594 13.7216 22.0119 12.9096 21.6278C12.7089 21.5328 12.5034 21.4356 12.2942 21.336C11.2449 20.8359 10.1117 20.2774 9.05439 19.6388C6.95811 18.3728 5.07371 16.742 4.8093 14.5385C4.39658 11.0992 6.5781 9.07733 7.75508 8.48193C10.601 6.64402 18.353 2.89383 24.4039 1.82602C25.0997 1.70323 25.8671 1.52923 26.533 1.3379C27.2093 1.14355 27.7485 0.940129 28.0119 0.767566C28.0225 0.760672 28.0321 0.75407 28.0411 0.747777C28.0238 0.741279 28.004 0.734459 27.9816 0.727434C27.6033 0.609085 26.7725 0.524588 25.2777 0.524588H5.08745ZM28.128 0.670911C28.128 0.670907 28.1279 0.671143 28.1276 0.671634L28.128 0.670911Z" fill="white"/>
</svg>
