<svg width="25" height="28" viewBox="0 0 25 28" fill="none" xmlns="http://www.w3.org/2000/svg">
<mask id="mask0_860:12008" style="mask-type:alpha" maskUnits="userSpaceOnUse" x="0" y="0" width="25" height="28">
<path d="M22.3362 28H2.21852C1.14644 28 0.277344 27.1046 0.277344 26V2C0.277344 0.895431 1.14644 0 2.21852 0H15.2773L24.2773 9.27273V26C24.2773 27.1046 23.4083 28 22.3362 28Z" fill="url(#paint0_linear_860:12008)"/>
</mask>
<g mask="url(#mask0_860:12008)">
<path d="M22.3362 28H2.21852C1.14644 28 0.277344 27.1046 0.277344 26V2C0.277344 0.895431 1.14644 0 2.21852 0H15.2773L24.2773 9.27273V26C24.2773 27.1046 23.4083 28 22.3362 28Z" fill="#FF7981"/>
<path d="M5.76875 19.7627C5.68046 19.7627 5.60611 19.7316 5.5457 19.6693C5.48528 19.6071 5.45508 19.5305 5.45508 19.4395V15.0442C5.45508 14.9533 5.48528 14.8767 5.5457 14.8144C5.60611 14.7474 5.68046 14.7139 5.76875 14.7139H7.35805C7.79952 14.7139 8.15967 14.7905 8.43849 14.9437C8.71731 15.0969 8.91714 15.2932 9.03796 15.5326C9.15878 15.772 9.2192 16.0305 9.2192 16.3082C9.2192 16.5859 9.15878 16.8445 9.03796 17.0839C8.91714 17.3233 8.71731 17.5196 8.43849 17.6728C8.15967 17.826 7.79952 17.9026 7.35805 17.9026H6.0894V19.4395C6.0894 19.5305 6.05687 19.6071 5.99181 19.6693C5.9314 19.7316 5.85705 19.7627 5.76875 19.7627ZM7.29531 17.285C7.76931 17.285 8.10158 17.1916 8.29211 17.0049C8.48728 16.8181 8.58487 16.5859 8.58487 16.3082C8.58487 16.0305 8.48728 15.7983 8.29211 15.6116C8.10158 15.4249 7.76931 15.3315 7.29531 15.3315H6.0894V17.285H7.29531Z" fill="white"/>
<path d="M10.9401 19.7268C10.8518 19.7268 10.7774 19.6957 10.717 19.6334C10.6566 19.5712 10.6264 19.4946 10.6264 19.4036V15.0442C10.6264 14.9533 10.6566 14.8767 10.717 14.8144C10.7774 14.7474 10.8518 14.7139 10.9401 14.7139H12.3411C12.8709 14.7139 13.3194 14.836 13.6865 15.0801C14.0582 15.3195 14.3371 15.6307 14.5229 16.0138C14.7088 16.3968 14.8018 16.799 14.8018 17.2203C14.8018 17.6417 14.7088 18.0438 14.5229 18.4269C14.3371 18.8099 14.0582 19.1235 13.6865 19.3677C13.3194 19.6071 12.8709 19.7268 12.3411 19.7268H10.9401ZM12.2645 19.1163C12.6455 19.1163 12.9801 19.0373 13.2682 18.8793C13.5564 18.7165 13.7794 18.4939 13.9374 18.2114C14.0954 17.9241 14.1744 17.5938 14.1744 17.2203C14.1744 16.8469 14.0954 16.5189 13.9374 16.2364C13.7794 15.9491 13.5564 15.7265 13.2682 15.5685C12.9801 15.4057 12.6455 15.3243 12.2645 15.3243H11.2607V19.1163H12.2645Z" fill="white"/>
<path d="M16.6627 19.7627C16.5745 19.7627 16.5001 19.7316 16.4397 19.6693C16.3793 19.6071 16.3491 19.5305 16.3491 19.4395V15.0442C16.3491 14.9533 16.3793 14.8767 16.4397 14.8144C16.5001 14.7474 16.5745 14.7139 16.6627 14.7139H19.3743C19.458 14.7139 19.5277 14.745 19.5834 14.8072C19.6438 14.8647 19.674 14.9365 19.674 15.0227C19.674 15.1089 19.6438 15.1807 19.5834 15.2381C19.5277 15.2956 19.458 15.3243 19.3743 15.3243H16.9834V16.9115H19.1303C19.214 16.9115 19.2837 16.9426 19.3395 17.0049C19.3999 17.0623 19.4301 17.1341 19.4301 17.2203C19.4301 17.3065 19.3999 17.3783 19.3395 17.4358C19.2837 17.4932 19.214 17.522 19.1303 17.522H16.9834V19.4395C16.9834 19.5305 16.9509 19.6071 16.8858 19.6693C16.8254 19.7316 16.751 19.7627 16.6627 19.7627Z" fill="white"/>
<path fill-rule="evenodd" clip-rule="evenodd" d="M8.16999 16.8726L8.17076 16.8718C8.3295 16.7199 8.40714 16.5362 8.40714 16.3084C8.40714 16.0806 8.3295 15.8969 8.17076 15.745L8.16999 15.7443L8.16922 15.7435C8.02939 15.6065 7.7557 15.5135 7.29405 15.5135H6.26461V17.1033H7.29405C7.7557 17.1033 8.02939 17.0103 8.16922 16.8733L8.16999 16.8726ZM6.08814 17.2851V15.3317H7.29405C7.76805 15.3317 8.10031 15.425 8.29084 15.6118C8.48602 15.7985 8.58361 16.0307 8.58361 16.3084C8.58361 16.5861 8.48602 16.8183 8.29084 17.005C8.10031 17.1918 7.76805 17.2851 7.29405 17.2851H6.08814ZM13.7801 19.5212L13.7796 19.5215C13.3786 19.783 12.8957 19.9088 12.3399 19.9088H10.9388C10.8054 19.9088 10.6857 19.8597 10.591 19.7622C10.4962 19.6646 10.4486 19.5412 10.4486 19.4038V15.0444C10.4486 14.9081 10.4955 14.7856 10.5886 14.6884C10.6819 14.5862 10.8022 14.5322 10.9388 14.5322H12.3399C12.8958 14.5322 13.3789 14.6605 13.7798 14.9268C14.177 15.1829 14.4785 15.5184 14.6795 15.9326C14.8774 16.3405 14.977 16.7705 14.977 17.2205C14.977 17.6705 14.8774 18.1005 14.6795 18.5084C14.4785 18.9226 14.1771 19.2604 13.7801 19.5212ZM13.6852 15.0803C13.3181 14.8361 12.8696 14.714 12.3399 14.714H10.9388C10.8505 14.714 10.7761 14.7476 10.7157 14.8146C10.6553 14.8768 10.6251 14.9534 10.6251 15.0444V19.4038C10.6251 19.4947 10.6553 19.5713 10.7157 19.6336C10.7761 19.6958 10.8505 19.727 10.9388 19.727H12.3399C12.8696 19.727 13.3181 19.6073 13.6852 19.3679C14.057 19.1237 14.3358 18.8101 14.5217 18.427C14.7076 18.044 14.8005 17.6418 14.8005 17.2205C14.8005 16.7992 14.7076 16.397 14.5217 16.014C14.3358 15.6309 14.057 15.3197 13.6852 15.0803ZM13.7829 16.3268L13.7826 16.3262C13.6415 16.0696 13.4432 15.8713 13.1841 15.7292L13.1831 15.7286L13.1821 15.7281C12.9239 15.5822 12.6194 15.5063 12.2632 15.5063H11.4359V18.9347H12.2632C12.6198 18.9347 12.9247 18.861 13.1831 18.7195C13.4433 18.5723 13.6419 18.3733 13.7829 18.1214C13.9238 17.865 13.9967 17.5665 13.9967 17.2205C13.9967 16.8742 13.9237 16.5784 13.7832 16.3274L13.7829 16.3268ZM13.9361 18.2116C13.7781 18.4941 13.5551 18.7167 13.267 18.8795C12.9789 19.0375 12.6443 19.1165 12.2632 19.1165H11.2594V15.3245H12.2632C12.6443 15.3245 12.9789 15.4059 13.267 15.5687C13.5551 15.7267 13.7781 15.9493 13.9361 16.2366C14.0941 16.5191 14.1731 16.847 14.1731 17.2205C14.1731 17.594 14.0941 17.9243 13.9361 18.2116ZM5.76749 19.9447C5.63414 19.9447 5.51437 19.8957 5.41965 19.7981C5.32492 19.7005 5.27734 19.5771 5.27734 19.4397V15.0444C5.27734 14.9081 5.32415 14.7856 5.41734 14.6884C5.51062 14.5862 5.63091 14.5322 5.76749 14.5322H7.35678C7.81636 14.5322 8.20777 14.6117 8.52027 14.7834C8.82394 14.9503 9.05285 15.1707 9.19326 15.4489C9.32755 15.715 9.3944 16.0024 9.3944 16.3084C9.3944 16.6144 9.32755 16.9019 9.19326 17.1679C9.05285 17.4461 8.82394 17.6665 8.52027 17.8334C8.20777 18.0051 7.81636 18.0846 7.35678 18.0846H6.26461V19.4397C6.26461 19.5804 6.21226 19.7043 6.11301 19.8004C6.01866 19.8965 5.89975 19.9447 5.76749 19.9447ZM5.99055 19.6695C5.93014 19.7317 5.85579 19.7629 5.76749 19.7629C5.6792 19.7629 5.60484 19.7317 5.54443 19.6695C5.48402 19.6073 5.45381 19.5307 5.45381 19.4397V15.0444C5.45381 14.9534 5.48402 14.8768 5.54443 14.8146C5.60484 14.7476 5.6792 14.714 5.76749 14.714H7.35678C7.79826 14.714 8.1584 14.7907 8.43723 14.9439C8.71605 15.0971 8.91587 15.2934 9.0367 15.5328C9.15752 15.7722 9.21793 16.0307 9.21793 16.3084C9.21793 16.5861 9.15752 16.8447 9.0367 17.084C8.91587 17.3234 8.71605 17.5197 8.43723 17.673C8.1584 17.8262 7.79826 17.9028 7.35678 17.9028H6.08814V19.4397C6.08814 19.5307 6.05561 19.6073 5.99055 19.6695ZM16.6615 19.9447C16.5281 19.9447 16.4084 19.8957 16.3136 19.7981C16.2189 19.7005 16.1713 19.5771 16.1713 19.4397V15.0444C16.1713 14.9081 16.2181 14.7856 16.3113 14.6884C16.4046 14.5862 16.5249 14.5322 16.6615 14.5322H19.373C19.5026 14.5322 19.6178 14.582 19.707 14.6788C19.8009 14.7707 19.8492 14.8894 19.8492 15.0229C19.8492 15.1576 19.8001 15.2772 19.7044 15.3694C19.6138 15.4615 19.4992 15.5063 19.373 15.5063H17.1586V16.7299H19.1291C19.2587 16.7299 19.3739 16.7796 19.463 16.8764C19.557 16.9683 19.6053 17.087 19.6053 17.2205C19.6053 17.3552 19.5561 17.4749 19.4605 17.5671C19.3698 17.6591 19.2552 17.704 19.1291 17.704H17.1586V19.4397C17.1586 19.5804 17.1063 19.7043 17.007 19.8004C16.9127 19.8965 16.7937 19.9447 16.6615 19.9447ZM16.8845 19.6695C16.9496 19.6073 16.9821 19.5307 16.9821 19.4397V17.5221H19.1291C19.2127 17.5221 19.2824 17.4934 19.3382 17.436C19.3986 17.3785 19.4288 17.3067 19.4288 17.2205C19.4288 17.1343 19.3986 17.0625 19.3382 17.005C19.2824 16.9428 19.2127 16.9117 19.1291 16.9117H16.9821V15.3245H19.373C19.4567 15.3245 19.5264 15.2958 19.5822 15.2383C19.6426 15.1809 19.6728 15.109 19.6728 15.0229C19.6728 14.9367 19.6426 14.8649 19.5822 14.8074C19.5264 14.7452 19.4567 14.714 19.373 14.714H16.6615C16.5732 14.714 16.4988 14.7476 16.4384 14.8146C16.378 14.8768 16.3478 14.9534 16.3478 15.0444V19.4397C16.3478 19.5307 16.378 19.6073 16.4384 19.6695C16.4988 19.7317 16.5732 19.7629 16.6615 19.7629C16.7498 19.7629 16.8241 19.7317 16.8845 19.6695Z" fill="white"/>
<g opacity="0.7" filter="url(#filter0_d_860:12008)">
<path d="M24.2773 9.27273H17.2185C16.1464 9.27273 15.2773 8.3773 15.2773 7.27273V0L24.2773 9.27273Z" fill="#D03954"/>
</g>
</g>
<defs>
<filter id="filter0_d_860:12008" x="-7.72266" y="-24" width="59" height="59.2725" filterUnits="userSpaceOnUse" color-interpolation-filters="sRGB">
<feFlood flood-opacity="0" result="BackgroundImageFix"/>
<feColorMatrix in="SourceAlpha" type="matrix" values="0 0 0 0 0 0 0 0 0 0 0 0 0 0 0 0 0 0 127 0" result="hardAlpha"/>
<feOffset dx="2" dy="1"/>
<feGaussianBlur stdDeviation="12.5"/>
<feColorMatrix type="matrix" values="0 0 0 0 0 0 0 0 0 0 0 0 0 0 0 0 0 0 0.33 0"/>
<feBlend mode="normal" in2="BackgroundImageFix" result="effect1_dropShadow_860:12008"/>
<feBlend mode="normal" in="SourceGraphic" in2="effect1_dropShadow_860:12008" result="shape"/>
</filter>
<linearGradient id="paint0_linear_860:12008" x1="12.2773" y1="0" x2="12.2773" y2="28" gradientUnits="userSpaceOnUse">
<stop stop-color="#FF7979"/>
<stop offset="1" stop-color="#E85555"/>
</linearGradient>
</defs>
</svg>
